<svg width="400" height="300" viewBox="0 0 400 300" fill="none" xmlns="http://www.w3.org/2000/svg">
<path opacity="0.96" d="M400 0H0V300H400V0Z" fill="#E20913"/>
<path d="M340.798 270.484C339.893 269.393 337.306 267.736 335.051 266.801C332.795 265.867 330.949 264.299 330.949 263.316C330.949 261.387 341.616 252.979 344.009 253.022C346.793 253.072 358.599 261.307 358.599 263.199C358.599 264.246 356.753 265.867 354.497 266.801C349.794 268.749 346.957 271.674 348.052 273.445C349.462 275.727 372.75 270.569 376.917 267.052C382.079 262.694 379.257 258.259 367.983 253.009C358.931 248.794 357.467 243.819 362.993 236.059C364.502 233.94 367.173 227.708 368.93 222.209C370.686 216.711 372.892 210.547 373.831 208.512C375.314 205.301 375.133 204.153 372.465 199.836C370.773 197.1 369.708 194.031 370.098 193.016C371.025 190.599 359.647 181.106 355.822 181.106H352.88L355.886 185.327C357.856 188.094 358.69 190.92 358.306 193.535C357.834 196.749 358.313 197.671 360.772 198.289C365.716 199.529 365.853 202.923 361.229 209.643C356.555 216.437 353.706 218.241 351.358 215.893C350.247 214.782 350.343 212.826 351.711 208.681C353.302 203.861 353.295 202.536 351.667 199.999C350.611 198.352 348.706 195.006 347.435 192.562L345.124 188.12L340.692 195.25C337.408 200.533 336.493 203.296 337.16 205.914C340.286 218.179 335.978 220.211 328.607 209.949C323.636 203.029 323.686 199.566 328.776 198.289C331.231 197.672 331.713 196.747 331.245 193.555C330.911 191.277 331.607 188.238 332.879 186.421C335.664 182.446 335.679 181.106 332.94 181.106C329.699 181.106 318.63 190.879 319.45 193.016C319.839 194.031 318.774 197.1 317.083 199.836C314.424 204.138 314.237 205.313 315.697 208.512C316.626 210.547 318.286 214.859 319.385 218.094C320.485 221.328 323.498 228.384 326.08 233.772C331.75 245.603 331.026 248.605 321.423 253.076C313.588 256.723 310.212 259.614 310.212 262.673C310.212 267.528 314.98 269.874 330.949 272.878C340.364 274.649 343.602 273.862 340.798 270.484ZM339.416 104.585C338.511 103.494 335.924 101.837 333.668 100.903C331.412 99.9683 329.566 98.3999 329.566 97.4174C329.566 95.488 340.234 87.0799 342.627 87.123C345.41 87.1732 357.216 95.4087 357.216 97.3003C357.216 98.3472 355.37 99.9683 353.115 100.903C348.412 102.851 345.575 105.775 346.67 107.546C348.08 109.828 371.368 104.67 375.534 101.153C380.674 96.8145 377.87 92.3576 366.742 87.1768C358.788 83.4737 356.683 79.5012 359.545 73.5936C362.109 68.2992 364.35 67.3594 368.117 69.9984C370.241 71.4856 371.041 73.5162 371.041 77.4162C371.041 80.3697 371.705 83.1962 372.516 83.6975C374.544 84.9511 374.689 84.6221 375.742 76.3654C376.634 69.3761 376.479 68.8923 371.782 64.0565C369.093 61.288 366.894 58.5255 366.894 57.9176C366.894 56.7365 367.939 53.8856 371.75 44.6762C374.091 39.0187 374.077 38.7825 371.076 33.9269C369.388 31.1962 368.326 28.1321 368.715 27.1177C369.643 24.7004 358.264 15.2074 354.439 15.2074H351.498L354.503 19.4279C356.474 22.1951 357.307 25.0217 356.923 27.6363C356.452 30.8502 356.93 31.7727 359.39 32.3899C364.334 33.6308 364.47 37.0239 359.846 43.7444C355.172 50.538 352.323 52.342 349.976 49.9947C348.865 48.8836 348.96 46.9274 350.329 42.7821C351.919 37.9625 351.912 36.6369 350.285 34.1C349.228 32.4533 347.324 29.107 346.053 26.6638L343.741 22.2217L339.309 29.3517C336.025 34.634 335.11 37.3974 335.777 40.0151C338.903 52.2799 334.596 54.3125 327.225 44.0508C322.254 37.1301 322.304 33.6673 327.393 32.3899C329.848 31.7737 330.331 30.8485 329.862 27.6559C329.528 25.3785 330.225 22.339 331.497 20.5224C334.281 16.5475 334.296 15.2074 331.558 15.2074C328.317 15.2074 317.248 24.9805 318.068 27.1177C318.457 28.1321 317.395 31.1962 315.707 33.9269C312.706 38.7825 312.691 39.0187 315.032 44.6762C318.843 53.8856 319.889 56.7365 319.889 57.9176C319.889 58.5255 317.675 61.3031 314.968 64.0899C310.315 68.8808 310.099 69.5137 310.997 75.7075C312.101 83.3253 312.692 84.6709 314.455 83.5815C315.162 83.1441 315.742 80.3697 315.742 77.4162C315.742 73.5162 316.542 71.4856 318.665 69.9984C322.433 67.3594 324.674 68.2992 327.238 73.5936C330.099 79.5012 327.994 83.4737 320.04 87.1768C312.206 90.8244 308.829 93.7151 308.829 96.7742C308.829 101.629 313.597 103.976 329.566 106.98C338.981 108.751 342.22 107.963 339.416 104.585Z" fill="#FCE003"/>
<path d="M50.9693 270.277C50.0639 269.185 47.4774 267.528 45.2215 266.594C42.9656 265.66 41.1199 264.091 41.1199 263.109C41.1199 261.179 51.7871 252.771 54.1802 252.814C56.9638 252.864 68.7696 261.1 68.7696 262.991C68.7696 264.038 66.9239 265.66 64.668 266.594C59.9651 268.542 57.1283 271.466 58.223 273.237C59.6334 275.52 82.921 270.362 87.0876 266.844C92.2496 262.487 89.4281 258.052 78.1541 252.802C69.1023 248.586 67.6379 243.612 73.1639 235.851C74.6728 233.733 77.3443 227.5 79.1006 222.002C80.857 216.503 83.0627 210.34 84.0023 208.304C85.4847 205.094 85.3039 203.946 82.6357 199.629C80.9444 196.892 79.8791 193.823 80.2684 192.809C81.196 190.392 69.8177 180.899 65.9928 180.899H63.0514L66.0567 185.119C68.0271 187.886 68.8605 190.713 68.4767 193.328C68.005 196.541 68.4836 197.464 70.943 198.081C75.8871 199.322 76.0236 202.715 71.3997 209.436C66.7257 216.229 63.8767 218.033 61.5293 215.686C60.4182 214.575 60.5139 212.619 61.882 208.473C63.4726 203.654 63.4658 202.328 61.8381 199.791C60.7815 198.145 58.8771 194.798 57.6059 192.355L55.2947 187.913L50.8624 195.043C47.5788 200.325 46.6635 203.089 47.3307 205.706C50.4567 217.971 46.1492 220.004 38.7782 209.742C33.807 202.821 33.857 199.359 38.9465 198.081C41.4016 197.465 41.8842 196.54 41.4156 193.347C41.0814 191.07 41.7779 188.03 43.0503 186.214C45.8344 182.239 45.8498 180.899 43.1112 180.899C39.8704 180.899 28.8009 190.672 29.621 192.809C30.0103 193.823 28.945 196.892 27.2538 199.629C24.5953 203.93 24.4075 205.105 25.8677 208.304C26.7967 210.34 28.4566 214.651 29.5564 217.886C30.6562 221.121 33.6689 228.176 36.2512 233.565C41.9208 245.395 41.1964 248.397 31.5939 252.868C23.7593 256.516 20.3825 259.406 20.3825 262.465C20.3825 267.32 25.1509 269.667 41.1199 272.671C50.5347 274.442 53.773 273.655 50.9693 270.277ZM49.5869 104.378C48.6814 103.287 46.0949 101.63 43.839 100.695C41.5831 99.7609 39.7374 98.1925 39.7374 97.21C39.7374 95.2806 50.4047 86.8725 52.7977 86.9156C55.5813 86.9658 67.3871 95.2013 67.3871 97.0929C67.3871 98.1398 65.5414 99.7609 63.2855 100.695C58.5826 102.643 55.7458 105.567 56.8405 107.339C58.2509 109.621 81.5385 104.463 85.7051 100.946C90.8444 96.6071 88.0407 92.1502 76.9131 86.9694C68.9594 83.2663 66.8544 79.2938 69.7155 73.3862C72.2796 68.0918 74.5207 67.152 78.2883 69.791C80.4117 71.2782 81.212 73.3089 81.212 77.2088C81.212 80.1623 81.8755 82.9889 82.6865 83.4901C84.7149 84.7437 84.8597 84.4147 85.9133 76.158C86.8053 69.1687 86.6496 68.6849 81.9531 63.8491C79.2644 61.0806 77.0646 58.3181 77.0646 57.7102C77.0646 56.5291 78.1102 53.6782 81.9212 44.4688C84.2623 38.8113 84.2475 38.5751 81.2466 33.7195C79.5589 30.9888 78.4967 27.9247 78.8859 26.9103C79.8135 24.493 68.4353 15 64.6104 15H61.6689L64.6742 19.2205C66.6446 21.9877 67.4779 24.8143 67.0942 27.4289C66.6225 30.6428 67.1011 31.5653 69.5605 32.1826C74.5046 33.4234 74.6411 36.8165 70.0172 43.537C65.3432 50.3306 62.4942 52.1346 60.1468 49.7873C59.0357 48.6762 59.1314 46.72 60.4995 42.5747C62.0901 37.7551 62.0834 36.4295 60.4556 33.8926C59.3991 32.2459 57.4946 28.8996 56.2234 26.4564L53.9122 22.0143L49.4799 29.1444C46.1963 34.4266 45.281 37.19 45.9482 39.8077C49.0742 52.0725 44.7667 54.1051 37.3957 43.8434C32.4245 36.9227 32.4745 33.4599 37.564 32.1826C40.0192 31.5663 40.5018 30.6411 40.0332 27.4485C39.6989 25.1711 40.3954 22.1316 41.6678 20.315C44.4519 16.3401 44.4673 15 41.7288 15C38.4879 15 27.4184 24.7731 28.2386 26.9103C28.6278 27.9247 27.5655 30.9888 25.8779 33.7195C22.877 38.5751 22.8621 38.8113 25.2033 44.4688C29.0142 53.6782 30.0599 56.5291 30.0599 57.7102C30.0599 58.3181 27.8455 61.0957 25.1389 63.8825C20.486 68.6734 20.2697 69.3063 21.1676 75.5001C22.272 83.1179 22.8629 84.4635 24.6255 83.3741C25.3333 82.9367 25.9124 80.1623 25.9124 77.2088C25.9124 73.3089 26.7128 71.2782 28.8361 69.791C32.6038 67.152 34.8449 68.0918 37.409 73.3862C40.2701 79.2938 38.1651 83.2663 30.2114 86.9694C22.3768 90.617 19 93.5077 19 96.5668C19 101.422 23.7684 103.768 39.7373 106.772C49.1522 108.543 52.3905 107.756 49.5869 104.378Z" fill="#FCE003"/>
<path d="M253.574 253.93C247.131 264.425 236.651 272.896 223.492 278.245C215.394 281.536 211.141 282.503 203.147 282.869C191.209 283.416 185.668 282.373 174.224 277.429C156.63 269.827 144.248 255.681 138.578 236.706C135.141 225.205 135.141 216.624 138.578 205.123C144.558 185.109 157.076 171.447 176.83 163.373C186.72 159.331 188.468 159 199.93 159C211.393 159 213.14 159.331 223.031 163.373C236.679 168.951 247.058 177.286 253.574 187.899C259.554 197.64 264 211.718 264 220.915C264 230.111 259.554 244.189 253.574 253.93Z" fill="#FCE003"/>
<path d="M206.338 72.6598C203.297 70.7865 199.564 69.2578 198.043 69.2634C196.523 69.2686 192.678 70.7602 189.499 72.5779C186.32 74.3957 183.415 75.5792 183.044 75.2079C182.673 74.8367 182.713 71.2034 183.133 67.1341L183.896 59.7353L177.448 55.646L171 51.5567L177.955 47.2773L184.91 42.9979V33.9989C184.91 28.8698 185.509 25 186.304 25C187.071 25 190.275 26.8664 193.424 29.1475C200.193 34.0506 201.309 34.1536 208.412 30.53C211.393 29.0092 214.168 27.765 214.578 27.765C214.989 27.765 215.325 31.7326 215.325 36.5819C215.325 46.2174 215.917 47.1371 223.965 49.9869C230.298 52.2296 230.457 53.306 224.746 55.2968C217.167 57.939 215.325 60.5717 215.325 68.7626C215.325 77.2827 214.456 77.6595 206.338 72.6598Z" fill="#FCE003"/>
<path d="M374.602 122.503C380.341 126.88 380.473 127.882 375.546 129.665C373.455 130.422 370.738 131.452 369.507 131.953C367.944 132.589 367.034 131.962 366.488 129.874C365.767 127.119 365.074 126.947 357.665 127.677C353.243 128.113 339.671 128.825 327.505 129.26C308.408 129.942 305.716 129.785 307.805 128.115C309.135 127.052 310.224 125.696 310.224 125.103C310.224 124.511 309.135 123.164 307.805 122.11C305.714 120.455 307.171 120.3 318.519 120.969C325.742 121.394 338.922 122.405 347.807 123.214C364.277 124.714 366.906 124.392 366.906 120.874C366.906 117.935 369.269 118.435 374.602 122.503Z" fill="#FCE003"/>
<path d="M276.425 159.758L279.245 156.497L324.036 155.567C368.367 154.647 368.855 154.667 371.57 157.504C373.914 159.952 374.834 160.151 377.886 158.865C382.653 156.856 387 152.178 387 149.056C387 146.634 377.043 138.369 374.125 138.369C373.404 138.369 372.122 139.602 371.277 141.108C369.902 143.556 368.399 143.848 357.126 143.858C350.189 143.864 329.274 143.175 310.648 142.326C285.194 141.166 276.3 140.313 274.838 138.891C273.769 137.851 272.277 137 271.523 137C269.607 137 254 148.016 254 149.368C254 150.495 271.133 162.964 272.73 163C273.211 163.011 274.873 161.552 276.425 159.758V159.758Z" fill="white"/>
<path opacity="0.96" d="M358.961 173.204C358.667 172.036 357.87 171.209 356.769 170.933C355.817 170.694 348.389 170.849 340.263 171.279C315.413 172.591 302.296 173.002 301.014 172.51C299.891 172.08 299.919 171.904 301.352 170.379C302.642 169.006 302.777 168.464 302.13 167.255C301.7 166.451 301.044 165.793 300.674 165.793C300.303 165.793 300 165.479 300 165.095C300 164.082 302.637 164.183 329.459 166.22C342.781 167.231 354.811 167.847 356.192 167.588C358.259 167.2 358.776 166.753 359.115 165.059C359.342 163.926 359.897 163 360.35 163C362.298 163 370.524 169.253 370.524 170.733C370.524 171.583 364.726 174.157 361.656 174.669C359.689 174.997 359.367 174.823 358.961 173.204V173.204Z" fill="#0B26B2"/>
</svg>
