<svg width="400" height="300" viewBox="0 0 400 300" fill="none" xmlns="http://www.w3.org/2000/svg">
<rect width="400" height="300" fill="white"/>
<path d="M86.0699 167.392C87.3287 171.946 90.0805 175.44 94.3253 177.876C98.5995 180.276 104.074 181.476 110.748 181.476C118.038 181.476 123.805 180.064 128.05 177.24C132.295 174.381 134.9 170.234 135.866 164.798C133.261 167.728 130.099 169.193 126.381 169.193C122.839 169.193 119.97 167.992 117.774 165.592C115.608 163.157 114.525 159.927 114.525 155.903C114.525 152.868 115.33 150.203 116.94 147.909C118.55 145.579 120.717 144.097 123.439 143.461C121.097 142.72 118.067 142.349 114.349 142.349L116.369 134.408C125.093 135.89 131.636 138.961 135.998 143.62C140.389 148.244 142.585 154.456 142.585 162.257C142.585 170.834 139.877 177.611 134.461 182.588C129.075 187.529 121.331 190 111.232 190C100.985 190 93.0519 187.565 87.4311 182.694C81.8104 177.787 79 171.187 79 162.892C79 156.574 80.5369 151.403 83.6108 147.379C86.6846 143.32 90.6221 141.291 95.4231 141.291C99.141 141.291 102.069 142.508 104.206 144.944C106.372 147.379 107.455 150.609 107.455 154.633C107.455 159.115 106.182 162.663 103.635 165.275C101.117 167.887 97.648 169.193 93.2275 169.193C90.4757 169.193 88.0898 168.593 86.0699 167.392V167.392ZM85.6307 159.451C87.5629 160.898 89.7292 161.621 92.1297 161.621C97.5748 161.621 100.297 159.31 100.297 154.686C100.297 152.815 99.829 151.403 98.8922 150.45C97.9554 149.462 96.6527 148.968 94.984 148.968C92.5835 148.968 90.5489 149.885 88.8802 151.721C87.2408 153.556 86.1577 156.133 85.6307 159.451ZM135.471 155.003C134.651 153.097 133.554 151.615 132.178 150.556C130.802 149.497 129.279 148.968 127.611 148.968C125.854 148.968 124.42 149.532 123.307 150.662C122.195 151.756 121.639 153.309 121.639 155.321C121.639 157.262 122.151 158.798 123.176 159.927C124.23 161.057 125.693 161.621 127.567 161.621C129.47 161.621 131.124 161.039 132.529 159.874C133.934 158.709 134.915 157.086 135.471 155.003V155.003ZM86.6407 122.76V114.606H121.595C125.137 114.606 127.83 114.889 129.675 115.453C131.548 116.018 133.114 116.918 134.373 118.154C135.632 119.389 136.569 120.854 137.184 122.548C137.828 124.207 138.15 126.254 138.15 128.69C138.15 130.807 137.798 132.837 137.096 134.778C136.393 136.684 135.354 138.22 133.978 139.385C132.602 140.549 130.977 141.379 129.104 141.873C127.259 142.367 124.756 142.614 121.595 142.614H112.549V134.461H122.649C124.961 134.461 126.63 134.266 127.655 133.878C128.709 133.455 129.484 132.819 129.982 131.972C130.509 131.09 130.772 130.013 130.772 128.743C130.772 127.26 130.465 126.042 129.85 125.089C129.265 124.136 128.46 123.519 127.435 123.236C126.44 122.919 124.947 122.76 122.956 122.76H86.6407V122.76Z" fill="black"/>
<path d="M156.11 160.668C156.373 167.092 158.408 172.175 162.214 175.917C166.049 179.623 171.186 181.476 177.627 181.476C184.331 181.476 189.556 179.782 193.304 176.393C197.08 172.969 198.968 168.187 198.968 162.045C198.968 157.703 197.944 153.891 195.894 150.609C193.874 147.326 190.888 144.714 186.936 142.773L190.537 134.461C195.748 137.214 199.7 140.937 202.393 145.632C205.116 150.291 206.477 155.586 206.477 161.515C206.477 170.41 204.003 177.381 199.056 182.429C194.109 187.476 187.053 190 177.89 190C168.903 190 161.848 187.247 156.725 181.74C151.602 176.199 149.04 168.787 149.04 159.504C149.04 151.844 150.621 145.755 153.783 141.237C156.973 136.72 161.072 134.461 166.078 134.461C169.679 134.461 172.562 135.714 174.729 138.22C176.895 140.69 177.978 144.008 177.978 148.173C177.978 152.868 176.763 156.539 174.333 159.186C171.904 161.833 168.449 163.157 163.97 163.157C161.248 163.157 158.628 162.327 156.11 160.668V160.668ZM156.461 152.938C158.54 154.668 160.896 155.533 163.531 155.533C165.961 155.533 167.791 154.933 169.02 153.733C170.25 152.532 170.864 150.821 170.864 148.597C170.864 146.62 170.381 145.05 169.415 143.885C168.478 142.72 167.22 142.138 165.639 142.138C163.355 142.138 161.394 143.073 159.755 144.944C158.144 146.779 157.047 149.444 156.461 152.938V152.938Z" fill="black"/>
<path d="M201.471 176.658L205.072 169.669C207.56 173.693 210.048 176.675 212.537 178.617C215.054 180.523 217.762 181.476 220.661 181.476C223.734 181.476 226.076 180.311 227.687 177.981C229.297 175.617 230.102 172.21 230.102 167.763C230.102 162.398 228.814 157.65 226.237 153.521C223.691 149.391 219.724 145.826 214.337 142.826L217.675 134.461C223.852 137.708 228.711 142.226 232.253 148.014C235.796 153.803 237.567 160.192 237.567 167.181C237.567 174.452 236.059 180.082 233.044 184.07C230.028 188.023 225.71 190 220.09 190C216.46 190 213.093 188.888 209.99 186.664C206.916 184.441 204.076 181.105 201.471 176.658V176.658Z" fill="black"/>
<path d="M275.024 185.5C277.922 180.558 279.81 176.393 280.689 173.005C281.596 169.581 282.05 165.981 282.05 162.204C282.05 155.85 280.747 150.997 278.142 147.644C275.536 144.291 271.716 142.614 266.681 142.614C262.084 142.614 258.454 144.344 255.79 147.803C253.126 151.262 251.794 156.027 251.794 162.098C251.794 166.263 252.336 170.199 253.419 173.905C254.532 177.611 256.332 181.476 258.82 185.5L251.311 189.471C246.657 180.717 244.329 171.593 244.329 162.098C244.329 156.839 245.266 152.074 247.14 147.803C249.013 143.497 251.677 140.196 255.132 137.902C258.615 135.608 262.641 134.461 267.208 134.461C274.204 134.461 279.664 136.826 283.587 141.555C287.539 146.25 289.515 152.709 289.515 160.933C289.515 165.981 289.003 170.728 287.978 175.175C286.953 179.623 285.124 184.388 282.489 189.471L275.024 185.5V185.5ZM259.172 124.507C259.757 127.225 260.328 129.29 260.884 130.702C261.44 132.113 262.026 133.102 262.641 133.666C263.285 134.196 264.075 134.461 265.012 134.461C266.183 134.461 267.295 134.019 268.349 133.137C269.403 132.255 270.896 130.313 272.828 127.313L275.595 122.972C278.698 118.065 281.523 114.694 284.07 112.859C286.617 110.988 289.778 110.035 293.555 110L294.038 118.365C291.959 118.506 290.276 118.877 288.988 119.477C287.7 120.077 286.5 120.96 285.387 122.124C284.304 123.254 282.796 125.319 280.864 128.319L278.8 131.549C276.341 135.396 274.014 138.202 271.818 139.967C269.652 141.732 267.208 142.614 264.485 142.614C261.06 142.614 258.337 141.291 256.317 138.643C254.327 135.961 252.79 132.219 251.707 127.419L259.172 124.507Z" fill="black"/>
<path d="M284.904 176.658L288.505 169.669C290.993 173.693 293.482 176.675 295.97 178.617C298.487 180.523 301.195 181.476 304.094 181.476C307.168 181.476 309.51 180.311 311.12 177.981C312.73 175.617 313.535 172.21 313.535 167.763C313.535 162.398 312.247 157.65 309.67 153.521C307.124 149.391 303.157 145.826 297.77 142.826L301.108 134.461C307.285 137.708 312.144 142.226 315.686 148.014C319.229 153.803 321 160.192 321 167.181C321 174.452 319.492 180.082 316.477 184.07C313.462 188.023 309.144 190 303.523 190C299.893 190 296.526 188.888 293.423 186.664C290.349 184.441 287.51 181.105 284.904 176.658V176.658Z" fill="black"/>
</svg>
