<svg width="50" height="50" viewBox="0 0 40 40" fill="none" xmlns="http://www.w3.org/2000/svg">
<path d="M34.5803 15.1902L20.5803 5.19015C20.4111 5.06961 20.2082 5.00488 20.0004 5.00488C19.7926 5.00488 19.5897 5.06961 19.4205 5.19015L5.4205 15.1902C5.19126 15.356 5.04305 15.6111 5.01269 15.8924C4.98211 16.1736 5.07229 16.4547 5.26046 16.6658C5.44863 16.8767 5.7176 16.9984 6.0004 17.0002H9.0004V26.0002C9.0004 26.2654 9.10576 26.5198 9.29326 26.7073C9.48075 26.8948 9.73522 27.0002 10.0004 27.0002H17.0004C17.2656 27.0002 17.52 26.8948 17.7075 26.7073C17.895 26.5198 18.0004 26.2654 18.0004 26.0002V20.0002H22.0004V26.0002C22.0004 26.2654 22.1058 26.5198 22.2933 26.7073C22.4808 26.8948 22.7352 27.0002 23.0004 27.0002H30.0004C30.2656 27.0002 30.52 26.8948 30.7075 26.7073C30.895 26.5198 31.0004 26.2654 31.0004 26.0002V17.0002H34.0004C34.2832 16.9984 34.5522 16.8767 34.7403 16.6658C34.9285 16.4546 35.0187 16.1736 34.9881 15.8924C34.9578 15.6111 34.8095 15.356 34.5803 15.1902H34.5803Z" fill="black"/>
</svg>
