<?xml version="1.0" encoding="UTF-8"?>
<svg width="700pt" height="700pt" version="1.1" viewBox="0 0 700 700" xmlns="http://www.w3.org/2000/svg">
 <path d="m605.15 265.82-245-175c-2.9609-2.1094-6.5117-3.2422-10.148-3.2422s-7.1875 1.1328-10.148 3.2422l-245 175c-4.0117 2.9023-6.6055 7.3672-7.1367 12.289-0.53516 4.9219 1.043 9.8398 4.3359 13.535 3.293 3.6914 8 5.8203 12.949 5.8516h52.5v157.5c0 4.6406 1.8438 9.0938 5.125 12.375s7.7344 5.125 12.375 5.125h122.5c4.6406 0 9.0938-1.8438 12.375-5.125s5.125-7.7344 5.125-12.375v-105h70v105c0 4.6406 1.8438 9.0938 5.125 12.375s7.7344 5.125 12.375 5.125h122.5c4.6406 0 9.0938-1.8438 12.375-5.125s5.125-7.7344 5.125-12.375v-157.5h52.5c4.9492-0.03125 9.6562-2.1602 12.949-5.8516 3.293-3.6953 4.8711-8.6133 4.3359-13.535-0.53125-4.9219-3.125-9.3867-7.1367-12.289z"/>
</svg>
