<svg width="40" height="33" viewBox="0 0 40 33" fill="none" xmlns="http://www.w3.org/2000/svg">
<path fill-rule="evenodd" clip-rule="evenodd" d="M4.34497 0C2.13574 0 0.344971 1.79102 0.344971 4V25.6523L6.08618 19.9102C5.92236 19.7715 5.77734 19.6113 5.65503 19.4346C5.38257 19.041 5.22314 18.5635 5.22314 18.0488C5.22314 16.7021 6.31494 15.6094 7.66211 15.6094C9.00928 15.6094 10.1011 16.7021 10.1011 18.0488C10.1011 18.2861 10.0674 18.5146 10.0044 18.7314L21.5146 23.1865C21.9583 22.7256 22.5818 22.4395 23.272 22.4395C23.4297 22.4395 23.5837 22.4541 23.7332 22.4824L30.3459 10.0352C29.894 9.59277 29.6135 8.97559 29.6135 8.29297C29.6135 6.94531 30.7056 5.85352 32.0527 5.85352C33.3997 5.85352 34.4917 6.94531 34.4917 8.29297C34.4917 8.625 34.4253 8.94141 34.3049 9.23047L39.3699 11.0176V4C39.3699 1.79102 37.5791 0 35.3699 0H4.34497ZM39.3699 12.0518L33.7312 10.0625C33.2939 10.4775 32.7029 10.7314 32.0527 10.7314C31.7407 10.7314 31.4426 10.6729 31.1685 10.5664L24.6387 22.8574C25.2859 23.2959 25.7112 24.0371 25.7112 24.8779C25.7112 26.2256 24.6191 27.3174 23.272 27.3174C21.925 27.3174 20.833 26.2256 20.833 24.8779C20.833 24.5791 20.8867 24.293 20.9851 24.0283L9.54468 19.5996C9.09741 20.1416 8.42017 20.4883 7.66211 20.4883C7.42676 20.4883 7.19922 20.4541 6.98413 20.3926L0.344971 27.3174V28.1953C0.344971 30.4043 2.13574 32.1953 4.34497 32.1953H35.3699C37.5791 32.1953 39.3699 30.4043 39.3699 28.1953V12.0518Z" fill="black"/>
</svg>
