<svg width="934" height="934" viewBox="0 0 934 934" fill="none" xmlns="http://www.w3.org/2000/svg">
<path fill-rule="evenodd" clip-rule="evenodd" d="M467.133 138C348.331 138 252 237.235 252 358.733C252 383.801 262.635 415.212 278.364 452.764C294.093 490.321 315.391 533.04 337.864 575.733C382.812 661.119 433.083 746.947 453.833 787.133C456.385 792.128 461.526 795.274 467.135 795.274C472.745 795.274 477.885 792.128 480.438 787.133C501.187 746.945 551.454 661.117 596.407 575.733C618.88 533.04 639.943 490.321 655.672 452.764C671.402 415.207 682.271 383.8 682.271 358.733C682.271 237.244 586.006 138 467.138 138H467.133ZM467.133 259.333C509.555 259.333 544.133 294.088 544.133 336.568C544.133 378.989 509.549 413.803 467.133 413.803C424.717 413.803 389.899 378.991 389.899 336.568C389.899 294.095 424.711 259.333 467.133 259.333V259.333Z" fill="black"/>
</svg>
