<svg width="26" height="26" viewBox="0 0 26 26" fill="none" xmlns="http://www.w3.org/2000/svg">
<path d="M19.2664 9.05449L14.8383 15.8287C15.1836 16.2502 15.3867 16.7834 15.3867 17.3674C15.3867 18.7131 14.2949 19.8049 12.9492 19.8049C11.6035 19.8049 10.5117 18.7131 10.5117 17.3674C10.5117 17.215 10.527 17.0627 10.5523 16.9154L7.62734 15.2143C7.19062 15.6357 6.59648 15.8947 5.93633 15.8947C5.49961 15.8947 5.09336 15.7779 4.73789 15.5799L1.625 18.4947V21.3994C1.625 22.5928 2.6 23.5678 3.79336 23.5678H22.2117C23.4051 23.5678 24.3801 22.5928 24.3801 21.3994V10.6033L21.4043 8.62793C20.993 8.94785 20.475 9.14082 19.9113 9.14082C19.6879 9.14082 19.4695 9.11035 19.2664 9.05449Z" fill="black"/>
<path d="M5.94141 11.0195C7.28711 11.0195 8.37891 12.1113 8.37891 13.457C8.37891 13.5637 8.36875 13.6703 8.35859 13.7719L11.4105 15.4781C11.832 15.1328 12.3652 14.9297 12.9543 14.9297C13.1371 14.9297 13.3148 14.95 13.4824 14.9855L17.9207 8.10977C17.6363 7.71367 17.4688 7.22617 17.4688 6.69805C17.4688 5.35234 18.5605 4.26055 19.9062 4.26055C21.252 4.26055 22.3438 5.35234 22.3438 6.69805C22.3438 6.89609 22.3184 7.08906 22.2777 7.27187L24.375 8.67344V4.60586C24.375 3.4125 23.4 2.4375 22.2066 2.4375H3.79336C2.6 2.4375 1.625 3.4125 1.625 4.60586V16.25L3.65625 14.3051C3.55977 14.041 3.50391 13.7566 3.50391 13.457C3.50391 12.1113 4.5957 11.0195 5.94141 11.0195Z" fill="black"/>
</svg>
