<svg width="23" height="24" viewBox="0 0 23 24" fill="none" xmlns="http://www.w3.org/2000/svg">
<path d="M22.9295 22.1564C22.8268 19.8407 22.0369 17.6376 20.6448 15.7858C19.2785 13.9679 17.4285 12.6077 15.294 11.8526C15.1466 11.8003 14.9841 11.812 14.8457 11.8845C13.7955 12.4349 12.6581 12.7137 11.465 12.7137C10.272 12.7137 9.13464 12.4347 8.08435 11.8845C7.94596 11.812 7.78328 11.8003 7.63608 11.8526C5.50178 12.6077 3.65142 13.9679 2.28532 15.7858C0.893394 17.6378 0.10332 19.8408 0.000555578 22.1564C-0.011331 22.4252 0.168664 22.6646 0.430165 22.7276C3.9251 23.5719 7.63755 24 11.4651 24C15.2927 24 19.0051 23.5719 22.5001 22.7278C22.7616 22.6646 22.9416 22.4252 22.9297 22.1564H22.9295ZM11.4651 22.8759C7.89421 22.8759 4.4281 22.495 1.15435 21.7436C1.50415 17.7888 4.05921 14.4088 7.78836 12.9943C8.92724 13.547 10.1928 13.8382 11.4655 13.8382C12.738 13.8382 14.0038 13.5472 15.1423 12.9943C18.8709 14.4088 21.426 17.7891 21.7759 21.7436C18.5019 22.4953 15.0358 22.8762 11.4652 22.8762L11.4651 22.8759ZM11.4653 10.8363C14.4528 10.8363 16.8834 8.40569 16.8834 5.41815C16.8834 2.43056 14.4528 0 11.4653 0C8.47767 0 6.04711 2.4306 6.04711 5.41815C6.04694 8.40574 8.47771 10.8363 11.4653 10.8363ZM11.4653 1.12414C13.8329 1.12414 15.7591 3.05027 15.7591 5.41802C15.7591 7.78563 13.833 9.71189 11.4653 9.71189C9.09764 9.71189 7.17121 7.78576 7.17121 5.41802C7.17121 3.05058 9.09747 1.12414 11.4653 1.12414Z" fill="white"/>
</svg>
