<svg width="18" height="24" viewBox="0 0 18 24" fill="none" xmlns="http://www.w3.org/2000/svg">
<path d="M14.5605 9.11778V5.47755C14.5605 4.02482 13.9834 2.63162 12.9561 1.60434C11.9289 0.577064 10.5357 0 9.08292 0H8.16656C6.71383 0 5.32063 0.577121 4.29335 1.60434C3.26607 2.63162 2.68901 4.02477 2.68901 5.47755V9.11778C1.0104 10.7101 0.0420254 12.9101 0.00133495 15.2236C-0.0393464 17.5369 0.851224 19.7695 2.47292 21.4199C4.09439 23.0703 6.31097 24 8.62486 24C10.9387 24 13.1552 23.0703 14.7768 21.4199C16.3985 19.7696 17.2891 17.537 17.2484 15.2236C17.2077 12.9104 16.2394 10.7104 14.5607 9.11778H14.5605ZM3.68504 5.47755C3.68504 4.28911 4.15721 3.14915 4.99772 2.3086C5.83827 1.46804 6.97801 0.995919 8.16668 0.995919H9.08304C10.2717 0.995919 11.4114 1.46809 12.252 2.3086C13.0925 3.14915 13.5647 4.28911 13.5647 5.47755V8.30101C12.1184 7.28353 10.3933 6.73753 8.62486 6.73753C6.85645 6.73753 5.13134 7.28351 3.68504 8.30101V5.47755ZM8.62486 22.9961C6.5999 22.9974 4.65763 22.194 3.22487 20.763C1.79234 19.332 0.986954 17.3905 0.986043 15.3655C0.985154 13.3408 1.78898 11.3985 3.2202 9.96619C4.65159 8.53389 6.59341 7.72896 8.6182 7.7285C10.6432 7.72806 12.5852 8.53212 14.017 9.96374C15.4491 11.3954 16.2537 13.3374 16.2537 15.3621C16.2523 17.3856 15.4483 19.3256 14.018 20.7568C12.5879 22.1879 10.6483 22.9934 8.62486 22.9961ZM9.62078 13.709C9.62811 13.7734 9.62811 13.8386 9.62078 13.903C9.62144 14.0346 9.5961 14.1649 9.54608 14.2865C9.49518 14.4079 9.4207 14.5179 9.32689 14.6102C9.26687 14.6713 9.19795 14.7233 9.12282 14.7645V17.5682C9.12282 17.8432 8.89984 18.0661 8.62486 18.0661C8.34987 18.0661 8.1269 17.8432 8.1269 17.5682V14.7645C8.05287 14.7216 7.98418 14.6698 7.92282 14.6102C7.73453 14.423 7.62872 14.1685 7.62894 13.903C7.6216 13.8386 7.6216 13.7734 7.62894 13.709C7.63961 13.6454 7.65806 13.5836 7.68362 13.5247C7.7103 13.464 7.74187 13.4057 7.77833 13.3504C7.81278 13.295 7.85458 13.2448 7.90282 13.201C8.08933 13.0154 8.34186 12.9113 8.60485 12.9113C8.86806 12.9113 9.12038 13.0154 9.30712 13.201C9.35536 13.2448 9.39715 13.295 9.43161 13.3504C9.46785 13.4057 9.49963 13.464 9.52609 13.5247C9.56322 13.5829 9.595 13.6447 9.6208 13.709L9.62078 13.709Z" fill="white"/>
</svg>
