<svg width="400" height="300" viewBox="0 0 400 300" fill="none" xmlns="http://www.w3.org/2000/svg">
<g clip-path="url(#clip0)">
<path d="M400 0H0V300H400V0Z" fill="#0155A5"/>
<path d="M0 128.571V214.286L114.286 300H228.571L0 128.571Z" fill="white"/>
<path d="M57.1429 0H0V42.8571L342.857 300H400V257.143L57.1429 0Z" fill="white"/>
<path d="M171.429 0H285.714L400 85.7143V171.429L171.429 0Z" fill="white"/>
<path d="M194.78 165.735C189.305 164.941 184.281 162.02 180.643 157.516C177.005 153.012 175 147.231 175 141.246C175 138.824 175.58 136.456 176.667 134.442C177.753 132.428 179.298 130.859 181.105 129.932C182.913 129.005 184.901 128.763 186.82 129.235C188.738 129.708 190.501 130.874 191.884 132.587C192.873 133.811 193.367 136.187 193.367 139.715C193.367 140.121 193.516 140.51 193.781 140.797C194.046 141.084 194.405 141.246 194.78 141.246C195.155 141.246 195.514 141.084 195.779 140.797C196.044 140.51 196.193 140.121 196.193 139.715C196.193 136.187 196.688 133.811 197.677 132.587C199.06 130.874 200.822 129.708 202.741 129.235C204.659 128.763 206.648 129.005 208.455 129.932C210.262 130.859 211.807 132.428 212.894 134.442C213.981 136.456 214.561 138.824 214.56 141.246C214.56 147.231 212.555 153.012 208.917 157.516C205.279 162.02 200.256 164.941 194.78 165.735V165.735Z" fill="#EE3E34"/>
<path d="M42.4286 217.735C36.4966 216.941 31.0546 214.02 27.1135 209.516C23.1724 205.012 21 199.231 21 193.246C20.9999 190.824 21.6282 188.456 22.8055 186.442C23.9828 184.428 25.6562 182.859 27.6141 181.932C29.572 181.005 31.7263 180.763 33.8048 181.235C35.8833 181.708 37.7924 182.874 39.2908 184.587C40.3622 185.811 40.898 188.187 40.898 191.715C40.898 192.121 41.0592 192.51 41.3463 192.797C41.6333 193.084 42.0226 193.246 42.4286 193.246C42.8345 193.246 43.2238 193.084 43.5109 192.797C43.7979 192.51 43.9592 192.121 43.9592 191.715C43.9592 188.187 44.4949 185.811 45.5663 184.587C47.0647 182.874 48.9739 181.708 51.0523 181.235C53.1308 180.763 55.2852 181.005 57.2431 181.932C59.2009 182.859 60.8743 184.428 62.0516 186.442C63.2289 188.456 63.8573 190.824 63.8571 193.246C63.8571 199.231 61.6848 205.012 57.7436 209.516C53.8025 214.02 48.3605 216.941 42.4286 217.735V217.735Z" fill="#EE3E34"/>
<path d="M346.429 109.735C340.497 108.941 335.055 106.02 331.113 101.516C327.172 97.012 325 91.2305 325 85.2456C325 82.8236 325.628 80.4561 326.806 78.4423C327.983 76.4285 329.656 74.8589 331.614 73.9321C333.572 73.0053 335.726 72.7628 337.805 73.2353C339.883 73.7079 341.792 74.8742 343.291 76.5869C344.362 77.8114 344.898 80.1874 344.898 83.715C344.898 84.1209 345.059 84.5102 345.346 84.7973C345.633 85.0843 346.023 85.2456 346.429 85.2456C346.835 85.2456 347.224 85.0843 347.511 84.7973C347.798 84.5102 347.959 84.1209 347.959 83.715C347.959 80.1874 348.495 77.8114 349.566 76.5869C351.065 74.8742 352.974 73.7079 355.052 73.2353C357.131 72.7628 359.285 73.0053 361.243 73.9321C363.201 74.8589 364.874 76.4285 366.052 78.4423C367.229 80.4561 367.857 82.8236 367.857 85.2456C367.857 91.2305 365.685 97.012 361.744 101.516C357.803 106.02 352.361 108.941 346.429 109.735V109.735Z" fill="#EE3E34"/>
<path d="M85.4286 85.7354C79.4966 84.9408 74.0546 82.0203 70.1135 77.5161C66.1724 73.012 64 67.2305 64 61.2456C63.9999 58.8236 64.6282 56.4561 65.8055 54.4423C66.9828 52.4285 68.6562 50.8589 70.6141 49.9321C72.572 49.0053 74.7263 48.7628 76.8048 49.2353C78.8833 49.7079 80.7924 50.8742 82.2908 52.5869C83.3623 53.8114 83.898 56.1874 83.898 59.715C83.898 60.1209 84.0592 60.5102 84.3463 60.7973C84.6333 61.0843 85.0226 61.2456 85.4286 61.2456C85.8345 61.2456 86.2238 61.0843 86.5109 60.7973C86.7979 60.5102 86.9592 60.1209 86.9592 59.715C86.9592 56.1874 87.4949 53.8114 88.5663 52.5869C90.0647 50.8742 91.9739 49.7079 94.0524 49.2353C96.1308 48.7628 98.2852 49.0053 100.243 49.9321C102.201 50.8589 103.874 52.4285 105.052 54.4423C106.229 56.4561 106.857 58.8236 106.857 61.2456C106.857 67.2305 104.685 73.012 100.744 77.5161C96.8025 82.0203 91.3606 84.9408 85.4286 85.7354V85.7354Z" fill="#EE3E34"/>
<path d="M303.429 250.735C297.497 249.941 292.055 247.02 288.113 242.516C284.172 238.012 282 232.231 282 226.246C282 223.824 282.628 221.456 283.806 219.442C284.983 217.429 286.656 215.859 288.614 214.932C290.572 214.005 292.726 213.763 294.805 214.235C296.883 214.708 298.792 215.874 300.291 217.587C301.362 218.811 301.898 221.187 301.898 224.715C301.898 225.121 302.059 225.51 302.346 225.797C302.633 226.084 303.023 226.246 303.429 226.246C303.835 226.246 304.224 226.084 304.511 225.797C304.798 225.51 304.959 225.121 304.959 224.715C304.959 221.187 305.495 218.811 306.566 217.587C308.065 215.874 309.974 214.708 312.052 214.235C314.131 213.763 316.285 214.005 318.243 214.932C320.201 215.859 321.874 217.429 323.052 219.442C324.229 221.456 324.857 223.824 324.857 226.246C324.857 232.231 322.685 238.012 318.744 242.516C314.803 247.02 309.361 249.941 303.429 250.735V250.735Z" fill="#EE3E34"/>
<path d="M279.429 55.7354C273.497 54.9409 268.055 52.0203 264.114 47.5162C260.172 43.012 258 37.2305 258 31.2456C258 28.8236 258.628 26.4561 259.806 24.4423C260.983 22.4285 262.656 20.8589 264.614 19.9321C266.572 19.0053 268.726 18.7628 270.805 19.2353C272.883 19.7079 274.792 20.8743 276.291 22.5869C277.362 23.8114 277.898 26.1874 277.898 29.715C277.898 30.1209 278.059 30.5102 278.346 30.7973C278.633 31.0843 279.023 31.2456 279.429 31.2456C279.835 31.2456 280.224 31.0843 280.511 30.7973C280.798 30.5102 280.959 30.1209 280.959 29.715C280.959 26.1874 281.495 23.8114 282.566 22.5869C284.065 20.8743 285.974 19.7079 288.052 19.2353C290.131 18.7628 292.285 19.0053 294.243 19.9321C296.201 20.8589 297.874 22.4285 299.052 24.4423C300.229 26.4561 300.857 28.8236 300.857 31.2456C300.857 37.2305 298.685 43.012 294.744 47.5162C290.803 52.0203 285.361 54.9409 279.429 55.7354V55.7354Z" fill="#EE3E34"/>
<path d="M114.429 279.735C108.497 278.941 103.055 276.02 99.1135 271.516C95.1724 267.012 93 261.23 93 255.246C92.9999 252.824 93.6282 250.456 94.8055 248.442C95.9828 246.428 97.6562 244.859 99.6141 243.932C101.572 243.005 103.726 242.763 105.805 243.235C107.883 243.708 109.792 244.874 111.291 246.587C112.362 247.811 112.898 250.187 112.898 253.715C112.898 254.121 113.059 254.51 113.346 254.797C113.633 255.084 114.023 255.246 114.429 255.246C114.835 255.246 115.224 255.084 115.511 254.797C115.798 254.51 115.959 254.121 115.959 253.715C115.959 250.187 116.495 247.811 117.566 246.587C119.065 244.874 120.974 243.708 123.052 243.235C125.131 242.763 127.285 243.005 129.243 243.932C131.201 244.859 132.874 246.428 134.052 248.442C135.229 250.456 135.857 252.824 135.857 255.246C135.857 261.23 133.685 267.012 129.744 271.516C125.803 276.02 120.361 278.941 114.429 279.735V279.735Z" fill="#EE3E34"/>
</g>
<defs>
<clipPath id="clip0">
<rect width="400" height="300" fill="white"/>
</clipPath>
</defs>
</svg>
