<svg width="400" height="300" viewBox="0 0 400 300" fill="none" xmlns="http://www.w3.org/2000/svg">
<path fill-rule="evenodd" clip-rule="evenodd" d="M0 0H400V300H0" fill="#004226"/>
<path fill-rule="evenodd" clip-rule="evenodd" d="M235.508 142.713C235.21 111.009 200.549 115.773 199.834 87.6064C200.586 108.307 241.235 108.875 240.973 142.713C240.918 176.074 200.092 176.377 199.834 197.82C201.356 170.459 236.428 175.636 235.508 142.713Z" fill="white" stroke="white" stroke-width="0.75" stroke-miterlimit="10"/>
<path fill-rule="evenodd" clip-rule="evenodd" d="M164.157 142.713C164.456 111.01 199.116 115.773 199.832 87.6077C199.08 108.307 158.431 108.875 158.693 142.713C158.748 176.076 199.574 176.377 199.832 197.82C198.309 170.46 163.237 175.636 164.157 142.713V142.713Z" fill="white" stroke="white" stroke-width="0.75" stroke-miterlimit="10"/>
<path fill-rule="evenodd" clip-rule="evenodd" d="M240.872 104.685C240.614 101.536 239.377 98.5782 237.416 96.2014C235.283 93.616 232.294 91.7129 228.773 90.9842C228.707 90.9707 228.65 90.9598 228.595 90.9488C228.594 90.9488 228.594 90.9488 228.591 90.9488C228.567 90.9439 228.553 90.9414 228.54 90.939L227.601 90.7632L227.615 91.7166C227.664 95.2457 228.945 98.5892 231.118 101.221C233.152 103.686 235.963 105.529 239.271 106.328C238.715 106.193 238.171 106.029 237.642 105.836C237.958 106.171 238.258 106.524 238.54 106.891C235.747 107.77 232.85 107.699 230.227 106.845C227.618 105.994 225.277 104.374 223.572 102.148C226.365 101.269 229.261 101.341 231.886 102.195C231.94 102.213 231.995 102.232 232.048 102.25C231.722 101.92 231.414 101.576 231.118 101.221C230.847 100.891 230.588 100.553 230.347 100.202C227.722 99.7281 224.941 99.9356 222.275 100.944L222.272 100.946C222.145 100.995 222.14 100.998 222.129 101.001L222.125 101.003C222.029 101.043 222.2 100.975 222.054 101.031L221.163 101.381L221.688 102.183C223.623 105.137 226.498 107.27 229.745 108.327C232.93 109.364 236.475 109.368 239.838 108.095L239.84 108.092C239.924 108.061 239.824 108.098 239.95 108.048C239.985 108.036 240.021 108.02 240.054 108.008L240.866 107.69C241.525 107.647 242.105 107.169 242.245 106.492C242.291 106.272 242.285 106.054 242.236 105.847L242.579 105.091C244.036 101.877 244.296 98.3047 243.45 95.0003C242.62 91.7581 240.723 88.7637 237.842 86.6055L237.843 86.603C237.835 86.5969 237.811 86.5811 237.783 86.5603C237.875 86.6274 237.935 86.6689 237.649 86.4614L236.878 85.9011L236.482 86.7727C235.442 89.0688 235.011 91.5469 235.159 93.9797C235.798 94.4912 236.394 95.0491 236.94 95.6509C236.476 93.2351 236.655 90.7021 237.522 88.3401C239.76 90.2261 241.25 92.709 241.936 95.3848C242.617 98.0447 242.503 100.89 241.537 103.524C241.193 103.234 240.866 102.929 240.557 102.611C240.708 103.29 240.814 103.983 240.872 104.685L240.872 104.685ZM236.213 97.1927C234.457 95.0662 232.052 93.4512 229.221 92.6968C229.468 95.4898 230.575 98.1131 232.321 100.23C234.077 102.356 236.483 103.971 239.314 104.728C239.067 101.933 237.96 99.3094 236.213 97.1927Z" fill="white"/>
<path fill-rule="evenodd" clip-rule="evenodd" d="M257.043 140.83C258.411 137.98 258.834 134.804 258.34 131.762C257.802 128.454 256.182 125.302 253.51 122.897C253.46 122.851 253.416 122.813 253.374 122.776C253.372 122.776 253.372 122.775 253.37 122.775C253.352 122.758 253.341 122.748 253.33 122.74L252.609 122.113L252.139 122.943C250.4 126.015 249.823 129.55 250.371 132.919C250.884 136.071 252.38 139.083 254.834 141.441C254.42 141.042 254.034 140.626 253.674 140.196C253.778 140.642 253.859 141.099 253.916 141.558C251.062 140.907 248.599 139.385 246.763 137.323C244.94 135.275 243.735 132.694 243.386 129.909C246.242 130.561 248.707 132.084 250.542 134.147C250.58 134.188 250.617 134.232 250.654 134.275C250.538 133.826 250.444 133.373 250.371 132.919C250.302 132.497 250.25 132.074 250.217 131.649C248.19 129.916 245.686 128.692 242.874 128.217L242.871 128.219C242.737 128.196 242.732 128.196 242.72 128.195H242.715C242.611 128.178 242.793 128.205 242.64 128.183L241.694 128.034L241.743 128.991C241.924 132.517 243.33 135.81 245.599 138.361C247.827 140.863 250.885 142.653 254.431 143.251H254.436C254.524 143.266 254.416 143.247 254.551 143.268C254.587 143.274 254.624 143.28 254.663 143.285L255.524 143.421C256.116 143.715 256.855 143.597 257.318 143.083C257.468 142.917 257.574 142.724 257.635 142.521L258.313 142.041C261.194 140 263.22 137.047 264.155 133.766C265.073 130.547 264.946 127.007 263.547 123.69H263.55C263.546 123.679 263.534 123.654 263.521 123.622C263.567 123.727 263.596 123.792 263.455 123.468L263.07 122.594L262.29 123.149C260.234 124.607 258.612 126.527 257.512 128.704C257.806 129.467 258.038 130.249 258.206 131.044C259.023 128.723 260.458 126.629 262.398 125.026C263.379 127.782 263.412 130.68 262.655 133.335C261.902 135.976 260.366 138.377 258.204 140.163C258.053 139.738 257.925 139.308 257.819 138.878C257.606 139.543 257.349 140.194 257.044 140.83L257.043 140.83ZM256.802 132.011C256.357 129.286 255.095 126.681 253.033 124.599C251.836 127.137 251.467 129.96 251.909 132.668C252.351 135.392 253.615 137.998 255.678 140.08C256.874 137.542 257.244 134.718 256.802 132.011Z" fill="white"/>
<path fill-rule="evenodd" clip-rule="evenodd" d="M252.401 120.939C252.606 117.785 251.814 114.679 250.22 112.041C248.484 109.173 245.806 106.854 242.428 105.62C242.365 105.597 242.31 105.579 242.256 105.56C242.256 105.559 242.255 105.559 242.253 105.559C242.23 105.552 242.217 105.546 242.202 105.541L241.301 105.231L241.174 106.176C240.708 109.677 241.489 113.169 243.257 116.089C244.911 118.823 247.422 121.057 250.58 122.33C250.046 122.116 249.532 121.874 249.038 121.607C249.302 121.984 249.548 122.376 249.774 122.782C246.881 123.244 244.027 122.752 241.555 121.522C239.099 120.302 237.019 118.358 235.654 115.906C238.546 115.443 241.403 115.936 243.874 117.164C243.926 117.191 243.976 117.217 244.026 117.243C243.752 116.869 243.496 116.485 243.257 116.089C243.037 115.724 242.831 115.353 242.642 114.97C240.114 114.118 237.334 113.917 234.548 114.528L234.544 114.53C234.412 114.56 234.407 114.561 234.395 114.563L234.392 114.564C234.29 114.589 234.468 114.547 234.316 114.582L233.384 114.799L233.787 115.668C235.271 118.871 237.805 121.403 240.863 122.921C243.862 124.411 247.368 124.931 250.881 124.159L250.885 124.158C250.973 124.138 250.867 124.162 250.998 124.131C251.035 124.123 251.072 124.114 251.108 124.107L251.959 123.91C252.617 123.963 253.259 123.576 253.497 122.925C253.573 122.715 253.601 122.497 253.583 122.287L254.031 121.588C255.941 118.62 256.719 115.125 256.362 111.731C256.013 108.402 254.571 105.165 252.036 102.61L252.039 102.609C252.031 102.599 252.01 102.581 251.986 102.558C252.068 102.636 252.119 102.686 251.868 102.44L251.185 101.771L250.668 102.576C249.304 104.698 248.518 107.085 248.309 109.514C248.867 110.113 249.374 110.752 249.827 111.426C249.72 108.969 250.266 106.491 251.47 104.279C253.407 106.47 254.521 109.145 254.81 111.891C255.096 114.622 254.568 117.421 253.23 119.885C252.931 119.549 252.651 119.199 252.393 118.839C252.443 119.533 252.448 120.236 252.401 120.939L252.401 120.939ZM248.884 112.847C247.457 110.486 245.313 108.539 242.622 107.379C242.459 110.18 243.171 112.937 244.59 115.283C246.018 117.644 248.164 119.591 250.855 120.752C251.018 117.953 250.305 115.196 248.884 112.847" fill="white"/>
<path fill-rule="evenodd" clip-rule="evenodd" d="M253.041 161.469C255.465 159.442 257.168 156.728 257.98 153.754C258.86 150.522 258.693 146.982 257.257 143.683C257.231 143.622 257.207 143.568 257.183 143.518C257.183 143.517 257.183 143.516 257.183 143.516H257.18C257.172 143.493 257.165 143.479 257.159 143.467L256.763 142.599L255.99 143.161C253.135 145.236 251.144 148.211 250.247 151.503C249.407 154.586 249.52 157.947 250.776 161.11C250.776 161.109 250.776 161.109 250.776 161.109C250.564 160.576 250.386 160.038 250.238 159.495C250.146 159.947 250.032 160.393 249.893 160.838C247.565 159.062 245.955 156.654 245.138 154.018C244.329 151.397 244.302 148.549 245.137 145.872C247.467 147.648 249.078 150.055 249.892 152.692C249.91 152.747 249.927 152.801 249.944 152.855C250.024 152.401 250.124 151.95 250.247 151.503C250.359 151.093 250.488 150.685 250.632 150.286C249.507 147.868 247.736 145.716 245.373 144.12L245.369 144.118C245.256 144.042 245.253 144.041 245.242 144.032L245.237 144.031C245.15 143.975 245.305 144.074 245.175 143.988L244.374 143.463L244.023 144.354C242.726 147.637 242.64 151.218 243.649 154.48C244.639 157.68 246.68 160.576 249.659 162.59L249.664 162.592C249.738 162.643 249.648 162.582 249.762 162.656C249.794 162.677 249.824 162.697 249.856 162.717L250.584 163.197C250.999 163.71 251.722 163.909 252.357 163.633C252.564 163.544 252.739 163.413 252.878 163.255L253.694 163.098C257.161 162.433 260.227 160.587 262.44 157.99C264.609 155.441 265.961 152.166 266.064 148.568H266.066C266.067 148.556 266.067 148.528 266.067 148.495C266.066 148.607 266.066 148.681 266.071 148.328L266.083 147.373L265.144 147.553C262.667 148.028 260.396 149.105 258.493 150.629C258.444 151.445 258.331 152.252 258.154 153.046C259.861 151.275 262.034 149.961 264.463 149.306C264.214 152.222 263.045 154.872 261.253 156.975C259.474 159.066 257.083 160.614 254.373 161.344C254.413 160.895 254.474 160.451 254.555 160.015C254.087 160.531 253.583 161.017 253.041 161.469L253.041 161.469ZM256.476 153.344C257.202 150.681 257.131 147.787 256.117 145.037C253.976 146.85 252.472 149.267 251.751 151.914C251.025 154.577 251.094 157.471 252.108 160.221C254.249 158.409 255.754 155.992 256.476 153.344" fill="white"/>
<path fill-rule="evenodd" clip-rule="evenodd" d="M212.496 199.53C212.495 199.53 212.496 199.53 212.495 199.53C215.635 199.899 218.777 199.269 221.493 197.814C224.448 196.232 226.902 193.676 228.31 190.368C228.337 190.305 228.359 190.252 228.381 190.198V190.197V190.196C228.39 190.172 228.396 190.16 228.401 190.147L228.76 189.262L227.821 189.086C224.35 188.44 220.821 189.038 217.812 190.651C214.996 192.16 212.634 194.553 211.2 197.638C211.2 197.638 211.2 197.638 211.201 197.638C211.443 197.118 211.711 196.618 212.002 196.137C211.611 196.381 211.208 196.605 210.791 196.811C210.481 193.898 211.122 191.074 212.476 188.67C213.821 186.28 215.872 184.303 218.391 183.068C218.702 185.98 218.061 188.806 216.707 191.211C216.68 191.26 216.65 191.309 216.621 191.359C217.009 191.105 217.405 190.868 217.812 190.651C218.188 190.451 218.573 190.264 218.964 190.094C219.946 187.615 220.289 184.849 219.825 182.035L219.824 182.031C219.801 181.897 219.8 181.894 219.797 181.881L219.796 181.876C219.778 181.774 219.81 181.955 219.784 181.801L219.617 180.858L218.727 181.215C215.45 182.531 212.79 184.929 211.116 187.904C209.47 190.824 208.771 194.297 209.357 197.846L209.359 197.849C209.373 197.937 209.357 197.831 209.38 197.965C209.385 198.002 209.393 198.04 209.399 198.075L209.552 198.935C209.552 198.938 209.551 198.943 209.551 198.948L203.888 201.337L206.616 202.576L210.365 200.48C210.394 200.495 210.422 200.509 210.454 200.521C210.662 200.609 210.876 200.647 211.089 200.64L211.761 201.124C214.629 203.186 218.076 204.144 221.484 203.965C224.827 203.789 228.135 202.519 230.819 200.12V200.121C230.829 200.115 230.848 200.095 230.873 200.072C230.791 200.148 230.737 200.199 230.996 199.96L231.699 199.313L230.923 198.754C228.876 197.282 226.532 196.372 224.116 196.038C223.491 196.564 222.825 197.038 222.128 197.455C224.587 197.475 227.035 198.151 229.182 199.467C226.892 201.288 224.164 202.26 221.405 202.405C218.662 202.55 215.895 201.878 213.502 200.413C213.856 200.132 214.219 199.871 214.592 199.632C213.896 199.645 213.196 199.613 212.496 199.53L212.496 199.53ZM220.759 196.439C223.19 195.138 225.245 193.096 226.544 190.47C223.756 190.16 220.967 190.729 218.549 192.025C216.116 193.328 214.06 195.37 212.762 197.996C215.549 198.303 218.341 197.735 220.759 196.439" fill="white"/>
<path fill-rule="evenodd" clip-rule="evenodd" d="M228.938 190.221C232.076 189.862 234.993 188.532 237.306 186.495C239.821 184.279 241.627 181.231 242.242 177.687C242.255 177.622 242.262 177.564 242.27 177.507V177.506C242.275 177.479 242.278 177.466 242.28 177.452L242.427 176.51L241.473 176.552C237.947 176.715 234.648 178.104 232.086 180.36C229.689 182.474 227.936 185.343 227.244 188.676C227.244 188.673 227.244 188.673 227.244 188.673C227.361 188.112 227.509 187.565 227.682 187.03C227.358 187.357 227.015 187.667 226.656 187.961C225.69 185.198 225.668 182.301 226.437 179.651C227.202 177.015 228.748 174.625 230.917 172.848C231.886 175.612 231.907 178.51 231.136 181.161C231.122 181.213 231.105 181.268 231.088 181.323C231.406 180.988 231.739 180.665 232.086 180.36C232.406 180.079 232.737 179.81 233.079 179.557C233.469 176.918 233.174 174.146 232.078 171.514L232.076 171.51C232.024 171.386 232.021 171.381 232.015 171.368L232.014 171.366C231.971 171.27 232.046 171.439 231.984 171.295L231.605 170.416L230.82 170.968C227.932 172.996 225.891 175.939 224.939 179.218C224.049 182.285 224.109 185.648 225.312 188.832C226.147 188.848 226.986 188.929 227.821 189.086L228.76 189.261L228.401 190.146C228.396 190.16 228.39 190.172 228.381 190.195V190.197V190.198C228.359 190.251 228.337 190.305 228.31 190.367C228.122 190.808 227.917 191.235 227.693 191.65C227.736 191.643 227.778 191.635 227.82 191.622L228.586 191.941C231.848 193.292 235.425 193.438 238.701 192.485C241.915 191.55 244.845 189.559 246.911 186.61H246.913C246.919 186.602 246.933 186.581 246.953 186.552C246.89 186.644 246.848 186.705 247.047 186.414L247.583 185.624L246.7 185.258C244.37 184.291 241.88 183.942 239.454 184.166C238.965 184.823 238.424 185.435 237.842 186C240.242 185.459 242.778 185.558 245.167 186.346C243.354 188.645 240.92 190.214 238.267 190.985C235.632 191.752 232.783 191.73 230.12 190.85C230.398 190.496 230.693 190.159 231.001 189.84C230.327 190.013 229.639 190.142 228.938 190.221L228.938 190.221ZM236.276 185.325C238.347 183.501 239.88 181.044 240.546 178.191C237.761 178.527 235.175 179.717 233.115 181.531C231.045 183.355 229.51 185.812 228.845 188.665C231.631 188.329 234.217 187.139 236.276 185.325Z" fill="white"/>
<path fill-rule="evenodd" clip-rule="evenodd" d="M242.267 177.538C245.222 176.586 247.786 174.755 249.646 172.361C251.703 169.713 252.908 166.381 252.85 162.786C252.85 162.719 252.847 162.66 252.845 162.604C252.845 162.604 252.845 162.603 252.845 162.601C252.844 162.577 252.844 162.561 252.844 162.548L252.81 161.594L251.882 161.815C248.45 162.633 245.467 164.616 243.373 167.31C241.412 169.833 240.227 172.979 240.168 176.381C240.179 175.807 240.22 175.242 240.292 174.684C240.035 175.065 239.756 175.436 239.459 175.791C237.993 173.256 237.429 170.415 237.69 167.667C237.949 164.938 239.02 162.299 240.821 160.145C242.288 162.682 242.852 165.525 242.59 168.272C242.584 168.328 242.578 168.384 242.572 168.443C242.822 168.052 243.088 167.675 243.373 167.31C243.634 166.974 243.91 166.648 244.198 166.333C244.088 163.67 243.28 161.002 241.713 158.62L241.709 158.617C241.633 158.505 241.632 158.5 241.624 158.49L241.621 158.485C241.561 158.4 241.665 158.551 241.579 158.423L241.042 157.63L240.375 158.318C237.915 160.85 236.46 164.122 236.139 167.521C235.832 170.746 236.543 174.088 238.376 177.02C239.38 176.762 240.415 176.6 241.473 176.552L242.427 176.51L242.28 177.453C242.278 177.466 242.275 177.479 242.27 177.506V177.507C242.269 177.518 242.268 177.528 242.267 177.538C242.888 177.338 243.494 177.099 244.076 176.824C243.835 177.195 243.608 177.581 243.401 177.98C246.182 178.349 248.983 177.838 251.431 176.592C253.892 175.339 255.99 173.341 257.342 170.746C254.847 170.416 252.336 170.794 250.08 171.775C250.547 171.11 250.964 170.408 251.321 169.672C253.663 168.995 256.174 168.876 258.644 169.39L259.58 169.584L259.202 170.46C259.062 170.785 259.089 170.717 259.133 170.614C259.121 170.646 259.111 170.67 259.104 170.68V170.679C257.626 173.961 255.12 176.465 252.136 177.985C249.094 179.534 245.554 180.059 242.098 179.338L241.875 179.293C242.024 178.77 242.147 178.235 242.242 177.687C242.251 177.633 242.258 177.586 242.267 177.538V177.538ZM248.416 171.403C250.11 169.225 251.157 166.525 251.278 163.598C248.605 164.447 246.287 166.1 244.602 168.267C242.91 170.446 241.86 173.145 241.741 176.073C244.414 175.221 246.733 173.57 248.416 171.403" fill="white"/>
<path fill-rule="evenodd" clip-rule="evenodd" d="M158.794 104.685C159.052 101.536 160.287 98.5782 162.25 96.2014C164.382 93.616 167.372 91.7129 170.892 90.9842C170.957 90.9707 171.016 90.9598 171.071 90.9488C171.072 90.9488 171.072 90.9488 171.074 90.9488C171.099 90.9439 171.112 90.9414 171.127 90.939L172.064 90.7632L172.052 91.7166C172.003 95.2457 170.72 98.5892 168.547 101.221C166.512 103.686 163.702 105.529 160.394 106.328C160.951 106.193 161.495 106.029 162.024 105.836C161.708 106.171 161.407 106.524 161.125 106.891C163.918 107.77 166.815 107.699 169.44 106.845C172.047 105.994 174.387 104.374 176.094 102.148C173.3 101.269 170.404 101.341 167.78 102.195C167.726 102.213 167.671 102.232 167.617 102.25C167.942 101.92 168.252 101.576 168.547 101.221C168.818 100.891 169.076 100.553 169.319 100.202C171.943 99.7281 174.724 99.9356 177.389 100.944L177.394 100.946C177.521 100.995 177.524 100.998 177.535 101.001L177.54 101.003C177.638 101.043 177.467 100.975 177.61 101.031L178.501 101.381L177.976 102.183C176.044 105.137 173.166 107.27 169.919 108.327C166.736 109.364 163.192 109.368 159.828 108.095L159.824 108.092C159.741 108.061 159.841 108.098 159.714 108.048C159.68 108.036 159.646 108.02 159.612 108.008L158.799 107.69C158.14 107.647 157.561 107.169 157.419 106.492C157.375 106.272 157.38 106.054 157.429 105.847L157.086 105.091C155.63 101.877 155.369 98.3047 156.216 95.0003C157.046 91.7581 158.944 88.7637 161.824 86.6055L161.822 86.603C161.831 86.5969 161.854 86.5811 161.882 86.5603C161.789 86.6274 161.731 86.6689 162.017 86.4614L162.788 85.9011L163.184 86.7727C164.224 89.0688 164.654 91.5469 164.507 93.9797C163.867 94.4912 163.271 95.0491 162.726 95.6509C163.19 93.2351 163.009 90.7021 162.142 88.3401C159.906 90.2261 158.415 92.709 157.729 95.3848C157.048 98.0447 157.162 100.89 158.127 103.524C158.473 103.234 158.799 102.929 159.109 102.611C158.956 103.29 158.851 103.983 158.794 104.685L158.794 104.685ZM163.452 97.1927C165.208 95.0662 167.615 93.4512 170.443 92.6968C170.198 95.4898 169.092 98.1131 167.344 100.23C165.588 102.356 163.184 103.971 160.353 104.728C160.598 101.933 161.704 99.3094 163.452 97.1927Z" fill="white"/>
<path fill-rule="evenodd" clip-rule="evenodd" d="M142.622 140.83C141.255 137.98 140.83 134.804 141.326 131.762C141.864 128.454 143.484 125.302 146.156 122.897C146.206 122.851 146.25 122.813 146.294 122.776L146.295 122.775C146.314 122.758 146.326 122.748 146.336 122.74L147.056 122.113L147.527 122.943C149.264 126.015 149.844 129.55 149.295 132.919C148.782 136.071 147.285 139.083 144.832 141.441C145.245 141.042 145.632 140.626 145.991 140.196C145.888 140.642 145.807 141.099 145.748 141.558C148.604 140.907 151.068 139.385 152.902 137.323C154.725 135.275 155.929 132.694 156.279 129.909C153.424 130.561 150.96 132.084 149.124 134.147C149.086 134.188 149.049 134.232 149.011 134.275C149.127 133.826 149.221 133.373 149.295 132.919C149.363 132.497 149.415 132.074 149.448 131.649C151.475 129.916 153.98 128.692 156.792 128.217L156.795 128.219C156.93 128.196 156.935 128.196 156.947 128.195H156.951C157.053 128.178 156.873 128.205 157.025 128.183L157.973 128.034L157.923 128.991C157.742 132.517 156.337 135.81 154.066 138.361C151.839 140.863 148.781 142.653 145.235 143.251H145.23C145.142 143.266 145.248 143.247 145.114 143.268C145.077 143.274 145.04 143.28 145.004 143.285L144.142 143.421C143.551 143.715 142.81 143.597 142.348 143.083C142.197 142.917 142.092 142.724 142.03 142.521L141.353 142.041C138.473 140 136.447 137.047 135.51 133.766C134.591 130.547 134.719 127.007 136.117 123.69H136.116C136.121 123.679 136.13 123.654 136.145 123.622C136.099 123.727 136.069 123.792 136.211 123.468L136.594 122.594L137.374 123.148C139.434 124.607 141.053 126.527 142.153 128.704C141.859 129.467 141.627 130.249 141.46 131.044C140.642 128.723 139.207 126.629 137.268 125.026C136.287 127.782 136.252 130.68 137.012 133.335C137.764 135.976 139.299 138.377 141.461 140.163C141.611 139.738 141.741 139.308 141.847 138.878C142.059 139.543 142.317 140.194 142.622 140.83H142.622ZM142.864 132.011C143.307 129.286 144.57 126.681 146.632 124.599C147.83 127.137 148.198 129.96 147.756 132.668C147.315 135.392 146.051 137.998 143.988 140.08C142.792 137.542 142.424 134.718 142.864 132.011Z" fill="white"/>
<path fill-rule="evenodd" clip-rule="evenodd" d="M147.263 120.939C147.059 117.785 147.852 114.679 149.447 112.041C151.181 109.173 153.862 106.854 157.239 105.62C157.301 105.597 157.356 105.579 157.41 105.561C157.411 105.559 157.411 105.559 157.412 105.559C157.435 105.552 157.449 105.546 157.464 105.541L158.367 105.231L158.491 106.176C158.956 109.677 158.175 113.169 156.409 116.089C154.756 118.823 152.243 121.057 149.086 122.33C149.618 122.116 150.132 121.874 150.628 121.607C150.363 121.984 150.119 122.376 149.893 122.782C152.785 123.244 155.637 122.752 158.111 121.522C160.567 120.302 162.647 118.358 164.01 115.906C161.118 115.443 158.264 115.936 155.792 117.164C155.74 117.191 155.69 117.217 155.64 117.243C155.913 116.869 156.171 116.485 156.409 116.089C156.63 115.724 156.834 115.353 157.024 114.97C159.552 114.118 162.332 113.917 165.117 114.528L165.121 114.53C165.254 114.56 165.259 114.561 165.271 114.563L165.274 114.564C165.376 114.589 165.198 114.547 165.349 114.582L166.281 114.799L165.878 115.668C164.395 118.871 161.861 121.403 158.803 122.921C155.803 124.411 152.298 124.931 148.784 124.159L148.781 124.158C148.692 124.138 148.799 124.162 148.666 124.131C148.629 124.123 148.593 124.114 148.556 124.107L147.707 123.91C147.049 123.963 146.406 123.576 146.168 122.925C146.092 122.715 146.066 122.497 146.083 122.287L145.635 121.588C143.726 118.62 142.947 115.125 143.303 111.731C143.654 108.402 145.094 105.165 147.628 102.61L147.627 102.609C147.634 102.599 147.654 102.581 147.678 102.558C147.598 102.636 147.547 102.686 147.798 102.44L148.48 101.771L148.997 102.576C150.362 104.698 151.149 107.085 151.356 109.514C150.799 110.113 150.291 110.752 149.838 111.426C149.946 108.969 149.398 106.491 148.196 104.279C146.259 106.47 145.144 109.145 144.856 111.891C144.569 114.622 145.098 117.421 146.437 119.885C146.735 119.549 147.014 119.199 147.273 118.839C147.223 119.533 147.218 120.236 147.263 120.939L147.263 120.939ZM150.781 112.847C152.207 110.486 154.353 108.539 157.044 107.379C157.208 110.18 156.494 112.937 155.075 115.283C153.646 117.644 151.503 119.591 148.812 120.752C148.65 117.953 149.36 115.196 150.781 112.847" fill="white"/>
<path fill-rule="evenodd" clip-rule="evenodd" d="M146.625 161.469C144.199 159.442 142.498 156.728 141.687 153.754C140.805 150.521 140.974 146.981 142.409 143.683C142.437 143.622 142.459 143.568 142.483 143.518C142.483 143.517 142.483 143.516 142.485 143.516C142.494 143.493 142.5 143.479 142.506 143.467L142.903 142.599L143.674 143.161C146.53 145.236 148.521 148.211 149.419 151.503C150.259 154.586 150.144 157.947 148.889 161.11C148.889 161.109 148.889 161.109 148.889 161.109C149.102 160.576 149.28 160.038 149.428 159.495C149.519 159.947 149.634 160.393 149.773 160.838C152.101 159.062 153.712 156.654 154.527 154.018C155.337 151.397 155.364 148.549 154.529 145.872C152.199 147.648 150.587 150.055 149.773 152.692C149.756 152.747 149.739 152.801 149.724 152.855C149.643 152.401 149.541 151.95 149.419 151.503C149.307 151.093 149.177 150.685 149.032 150.286C150.159 147.868 151.93 145.716 154.292 144.12L154.297 144.118C154.409 144.042 154.414 144.041 154.424 144.032L154.428 144.031C154.514 143.975 154.36 144.074 154.49 143.988L155.292 143.463L155.642 144.354C156.941 147.637 157.025 151.218 156.016 154.48C155.027 157.68 152.986 160.576 150.006 162.591L150.003 162.592C149.928 162.643 150.017 162.582 149.904 162.656C149.873 162.677 149.841 162.697 149.811 162.718L149.081 163.197C148.666 163.71 147.943 163.909 147.308 163.633C147.102 163.544 146.926 163.413 146.786 163.255L145.972 163.098C142.505 162.433 139.437 160.587 137.225 157.99C135.055 155.441 133.705 152.166 133.601 148.568H133.6C133.599 148.556 133.599 148.528 133.599 148.495C133.6 148.607 133.6 148.681 133.595 148.328L133.583 147.373L134.521 147.553C136.997 148.028 139.27 149.105 141.172 150.629C141.221 151.446 141.334 152.252 141.511 153.046C139.805 151.275 137.631 149.961 135.201 149.306C135.452 152.222 136.622 154.872 138.412 156.975C140.192 159.066 142.584 160.614 145.293 161.344C145.253 160.895 145.193 160.451 145.111 160.015C145.579 160.531 146.084 161.017 146.625 161.469H146.625ZM143.19 153.344C142.465 150.681 142.534 147.787 143.549 145.037C145.689 146.85 147.194 149.267 147.915 151.914C148.64 154.577 148.572 157.471 147.556 160.221C145.416 158.408 143.911 155.991 143.19 153.344" fill="white"/>
<path fill-rule="evenodd" clip-rule="evenodd" d="M187.17 199.53C184.03 199.899 180.889 199.269 178.171 197.814C175.216 196.232 172.762 193.676 171.355 190.368C171.328 190.305 171.307 190.252 171.285 190.198L171.284 190.197V190.196C171.274 190.172 171.269 190.16 171.265 190.147L170.906 189.262L171.844 189.086C175.314 188.44 178.843 189.038 181.853 190.651C184.669 192.16 187.031 194.553 188.466 197.638C188.223 197.118 187.954 196.618 187.664 196.137C188.054 196.381 188.458 196.605 188.875 196.811C189.186 193.898 188.545 191.074 187.19 188.67C185.845 186.28 183.795 184.303 181.276 183.068C180.963 185.98 181.604 188.806 182.959 191.211C182.986 191.26 183.015 191.309 183.044 191.359C182.659 191.105 182.26 190.868 181.853 190.651C181.477 190.451 181.094 190.264 180.702 190.094C179.719 187.615 179.376 184.849 179.84 182.035L179.841 182.031C179.865 181.897 179.866 181.894 179.867 181.881L179.868 181.876C179.889 181.774 179.855 181.955 179.883 181.801L180.05 180.858L180.94 181.215C184.216 182.531 186.874 184.929 188.55 187.904C190.194 190.824 190.895 194.297 190.309 197.846L190.305 197.849C190.292 197.937 190.309 197.831 190.286 197.965C190.28 198.002 190.272 198.04 190.266 198.075L190.114 198.935C190.114 198.938 190.115 198.943 190.115 198.948L195.779 201.337L193.051 202.576L189.301 200.48C189.271 200.495 189.242 200.509 189.212 200.521C189.006 200.609 188.789 200.647 188.577 200.64L187.904 201.124C185.039 203.186 181.588 204.144 178.181 203.965C174.838 203.789 171.531 202.519 168.848 200.12L168.845 200.121C168.837 200.115 168.817 200.095 168.793 200.072C168.875 200.148 168.928 200.199 168.669 199.96L167.966 199.313L168.743 198.754C170.79 197.282 173.134 196.372 175.549 196.038C176.174 196.564 176.84 197.038 177.537 197.455C175.078 197.475 172.629 198.151 170.485 199.467C172.773 201.288 175.502 202.26 178.261 202.405C181.002 202.55 183.771 201.878 186.163 200.413C185.809 200.132 185.446 199.871 185.073 199.632C185.769 199.645 186.47 199.613 187.17 199.53V199.53ZM178.906 196.439C176.475 195.138 174.42 193.096 173.121 190.47C175.909 190.16 178.699 190.729 181.117 192.025C183.55 193.328 185.604 195.37 186.903 197.996C184.115 198.303 181.326 197.735 178.906 196.439" fill="white"/>
<path fill-rule="evenodd" clip-rule="evenodd" d="M170.727 190.221C170.729 190.221 170.729 190.221 170.727 190.221C167.588 189.862 164.673 188.532 162.36 186.495C159.845 184.279 158.038 181.231 157.423 177.687C157.411 177.622 157.404 177.564 157.394 177.507V177.506C157.39 177.479 157.388 177.466 157.385 177.452L157.24 176.51L158.192 176.552C161.719 176.715 165.017 178.104 167.579 180.36C169.977 182.474 171.73 185.343 172.421 188.676C172.421 188.673 172.421 188.673 172.421 188.673C172.305 188.112 172.158 187.565 171.982 187.03C172.307 187.357 172.65 187.667 173.008 187.961C173.976 185.198 173.997 182.301 173.228 179.651C172.463 177.015 170.919 174.625 168.748 172.848C167.78 175.612 167.758 178.51 168.528 181.161C168.545 181.213 168.561 181.268 168.577 181.323C168.258 180.988 167.926 180.665 167.579 180.36C167.258 180.079 166.927 179.81 166.586 179.557C166.196 176.918 166.493 174.146 167.587 171.514L167.59 171.51C167.642 171.386 167.645 171.381 167.649 171.368L167.653 171.366C167.694 171.27 167.62 171.439 167.682 171.295L168.06 170.416L168.844 170.968C171.735 172.996 173.774 175.939 174.727 179.218C175.618 182.285 175.558 185.648 174.353 188.832C173.518 188.848 172.681 188.929 171.844 189.086L170.906 189.261L171.265 190.146C171.269 190.16 171.274 190.172 171.284 190.195V190.197L171.285 190.198C171.307 190.251 171.328 190.305 171.355 190.367C171.542 190.808 171.749 191.235 171.973 191.65C171.93 191.643 171.887 191.635 171.846 191.622L171.078 191.941C167.817 193.292 164.241 193.438 160.964 192.485C157.749 191.55 154.819 189.559 152.754 186.61C152.747 186.602 152.731 186.581 152.712 186.552C152.776 186.644 152.816 186.705 152.618 186.414L152.083 185.624L152.964 185.258C155.294 184.291 157.784 183.942 160.212 184.166C160.702 184.823 161.24 185.435 161.824 186C159.425 185.459 156.887 185.558 154.498 186.346C156.311 188.645 158.746 190.214 161.398 190.985C164.033 191.752 166.882 191.73 169.546 190.85C169.268 190.496 168.972 190.159 168.665 189.84C169.338 190.013 170.028 190.142 170.728 190.221L170.727 190.221ZM163.389 185.325C161.318 183.501 159.785 181.044 159.12 178.191C161.904 178.527 164.491 179.717 166.549 181.531C168.621 183.355 170.155 185.812 170.82 188.665C168.036 188.329 165.448 187.139 163.389 185.325Z" fill="white"/>
<path fill-rule="evenodd" clip-rule="evenodd" d="M157.399 177.538C154.443 176.586 151.88 174.755 150.019 172.361C147.963 169.713 146.758 166.381 146.815 162.786C146.815 162.719 146.819 162.66 146.82 162.604C146.82 162.604 146.82 162.603 146.82 162.601C146.821 162.577 146.821 162.561 146.821 162.548L146.855 161.594L147.783 161.815C151.216 162.633 154.199 164.616 156.293 167.31C158.253 169.833 159.438 172.979 159.497 176.381C159.486 175.807 159.445 175.242 159.373 174.684C159.631 175.065 159.908 175.436 160.206 175.791C161.675 173.256 162.236 170.415 161.975 167.667C161.715 164.938 160.646 162.299 158.845 160.145C157.378 162.682 156.814 165.525 157.075 168.272C157.081 168.328 157.087 168.384 157.093 168.443C156.843 168.052 156.576 167.675 156.293 167.31C156.031 166.974 155.756 166.648 155.466 166.333C155.576 163.67 156.385 161.002 157.953 158.62L157.955 158.617C158.032 158.505 158.033 158.5 158.041 158.49L158.044 158.485C158.103 158.4 158 158.551 158.087 158.423L158.623 157.63L159.291 158.318C161.75 160.85 163.204 164.122 163.528 167.521C163.833 170.746 163.123 174.088 161.288 177.02C160.286 176.762 159.249 176.6 158.192 176.552L157.24 176.51L157.385 177.453C157.388 177.466 157.39 177.479 157.394 177.506V177.507C157.395 177.518 157.397 177.528 157.399 177.538C156.777 177.338 156.172 177.099 155.588 176.824C155.831 177.195 156.057 177.581 156.265 177.98C153.484 178.349 150.681 177.838 148.236 176.592C145.773 175.339 143.674 173.341 142.323 170.746C144.818 170.416 147.329 170.794 149.586 171.775C149.117 171.11 148.702 170.408 148.345 169.672C146.002 168.995 143.49 168.876 141.022 169.39L140.084 169.584L140.464 170.46C140.605 170.785 140.576 170.717 140.532 170.614C140.544 170.646 140.554 170.67 140.56 170.68V170.679C142.039 173.961 144.546 176.465 147.529 177.985C150.57 179.534 154.11 180.059 157.568 179.338L157.79 179.293C157.642 178.77 157.517 178.235 157.423 177.687C157.415 177.633 157.406 177.586 157.399 177.538L157.399 177.538ZM151.25 171.403C149.556 169.225 148.507 166.525 148.386 163.598C151.06 164.447 153.378 166.1 155.062 168.267C156.755 170.446 157.805 173.145 157.925 176.073C155.251 175.221 152.932 173.57 151.25 171.403Z" fill="white"/>
<path d="M199.52 58.002L203.732 68.9785H218.137H220.735L218.568 70.4092L207.17 77.936L211.567 89.396L212.441 91.6751L210.408 90.3237L199.446 83.0374L199.349 83.1021L199.331 83.0898L188.379 90.3237L186.46 91.5896L187.209 89.4204L191.311 77.543L180.986 70.3994L178.931 68.9785H181.428H194.27L198.053 58.0251L198.751 56L199.52 58.002V58.002ZM202.467 70.0369L198.829 60.5581L195.564 70.0125L195.382 70.541H194.825H183.928L192.684 76.5982L193.173 76.9375L192.981 77.4917L189.436 87.7554L198.91 81.4993L199.348 81.21L199.366 81.2222L199.448 81.166L199.878 81.4517L209.235 87.6712L205.488 77.9092L205.264 77.3257L205.787 76.9815L215.54 70.541H203.196H202.661" fill="white"/>
<path fill-rule="evenodd" clip-rule="evenodd" d="M195.155 72.9482C195.684 72.9482 196.112 73.3779 196.112 73.9053C196.112 74.4326 195.684 74.8623 195.155 74.8623C194.629 74.8623 194.198 74.4326 194.198 73.9053C194.198 73.3779 194.629 72.9482 195.155 72.9482Z" fill="white"/>
<path fill-rule="evenodd" clip-rule="evenodd" d="M199.789 72.9482C200.315 72.9482 200.745 73.3779 200.745 73.9053C200.745 74.4326 200.315 74.8623 199.789 74.8623C199.261 74.8623 198.833 74.4326 198.833 73.9053C198.833 73.3779 199.261 72.9482 199.789 72.9482Z" fill="white"/>
<path fill-rule="evenodd" clip-rule="evenodd" d="M204.51 72.9482C205.037 72.9482 205.466 73.3779 205.466 73.9053C205.466 74.4326 205.037 74.8623 204.51 74.8623C203.982 74.8623 203.553 74.4326 203.553 73.9053C203.553 73.3779 203.982 72.9482 204.51 72.9482Z" fill="white"/>
<path d="M274.017 133.081C276.63 138.205 278.662 143.646 280.034 149.335C281.367 154.865 282.073 160.601 282.073 166.471C282.073 187.827 272.822 207.211 257.903 221.251C243.008 235.27 222.461 243.961 199.834 243.961C177.206 243.961 156.658 235.27 141.763 221.251C126.843 207.211 117.593 187.827 117.593 166.471C117.593 160.601 118.298 154.865 119.631 149.335C121.003 143.646 123.037 138.205 125.648 133.081L130.068 124.407L128.584 134.027C128.341 135.595 128.154 137.216 128.025 138.888C127.899 140.536 127.833 142.162 127.833 143.761C127.833 162.382 135.906 179.289 148.926 191.541C161.971 203.82 179.983 211.431 199.834 211.431C219.683 211.431 237.693 203.82 250.74 191.541C263.76 179.289 271.832 162.382 271.832 143.761C271.832 142.162 271.766 140.536 271.639 138.888C271.511 137.216 271.323 135.595 271.082 134.027L269.597 124.407L274.017 133.081V133.081ZM277.007 150.067C276.44 147.721 275.753 145.414 274.954 143.152C274.957 143.356 274.957 143.559 274.957 143.761C274.957 163.274 266.506 180.983 252.876 193.811C239.27 206.616 220.5 214.556 199.834 214.556C179.165 214.556 160.396 206.616 146.79 193.811C133.159 180.983 124.708 163.274 124.708 143.761C124.708 143.559 124.709 143.356 124.712 143.152C123.911 145.414 123.225 147.721 122.659 150.067C121.389 155.332 120.718 160.822 120.718 166.471C120.718 186.935 129.59 205.515 143.899 218.981C158.234 232.472 178.024 240.836 199.834 240.836C221.641 240.836 241.432 232.472 255.767 218.981C270.076 205.515 278.948 186.935 278.948 166.471C278.948 160.822 278.276 155.332 277.007 150.067" fill="white"/>
<path d="M201.675 166.764C201.191 166.081 200.562 165.412 199.846 164.74C199.297 164.223 198.677 163.69 198.031 163.145C198.048 163.499 198.065 163.852 198.081 164.206L198.145 165.513L197.375 164.452C196.772 163.621 196.145 162.803 195.481 162.006C194.944 161.363 194.391 160.741 193.816 160.154C193.783 160.227 193.75 160.302 193.718 160.375C193.61 160.624 193.501 160.873 193.391 161.12L193.121 161.74L192.72 161.194C192.512 160.913 192.275 160.631 192.007 160.349C191.864 160.197 191.713 160.045 191.554 159.894C191.467 160.128 191.36 160.36 191.237 160.59C191.006 161.017 190.712 161.443 190.353 161.867L190.155 162.102L189.882 161.964C189.402 161.728 188.865 161.518 188.267 161.338C187.789 161.194 187.274 161.071 186.72 160.963V162.06C187.152 162.357 187.482 162.659 187.712 162.965C188.002 163.353 188.137 163.747 188.118 164.148L188.107 164.369L187.91 164.474C187.617 164.629 187.325 164.787 187.032 164.942C187.688 165.47 188.34 166 188.995 166.527L189.228 166.717L189.108 166.989C188.96 167.322 188.811 167.658 188.662 167.992C189.813 167.809 190.878 167.759 191.854 167.836C193.052 167.934 194.126 168.229 195.076 168.72L195.481 168.93L195.211 169.297C195.059 169.505 194.906 169.713 194.752 169.922C195.83 169.761 196.929 169.662 198.022 169.65C199.128 169.635 200.234 169.711 201.32 169.901C201.35 169.407 201.423 168.927 201.495 168.449C201.501 168.408 201.508 168.368 201.514 168.327C201.547 167.997 201.588 167.667 201.636 167.334C201.642 167.294 201.648 167.252 201.654 167.211C201.665 167.063 201.672 166.913 201.675 166.764H201.675ZM205.275 160.885C205.342 160.889 205.409 160.893 205.476 160.897H205.477C206.067 160.934 206.663 160.996 207.271 161.084C207.9 161.178 208.45 161.352 209.005 161.529C209.799 161.779 210.61 162.036 211.652 162.033C212.811 162.025 214.558 161.297 215.87 160.23C216.902 159.391 217.647 158.355 217.556 157.338C217.478 156.447 217.197 155.706 216.677 155.17C216.187 154.667 215.472 154.331 214.5 154.204C213.734 154.103 213.135 154.302 212.537 154.501C212.207 154.608 211.877 154.718 211.499 154.789L210.837 154.914L211.057 154.279C211.165 153.969 211.312 153.671 211.459 153.371C211.716 152.849 211.976 152.328 211.941 151.804C211.882 150.896 211.383 149.896 210.669 149.132C210.006 148.426 209.169 147.93 208.339 147.913C206.245 147.87 205.121 149.918 204.384 151.259C204.29 151.432 204.2 151.592 204.11 151.749L203.875 152.158L203.517 151.847C203.147 151.525 202.432 151.103 201.653 150.928C201.124 150.811 200.57 150.81 200.094 151.044C197.933 152.106 197.817 153.935 197.706 155.719C197.689 155.98 197.673 156.242 197.639 156.615C197.614 156.884 197.614 157.146 197.634 157.401C197.695 158.152 197.964 158.738 198.381 159.145C198.8 159.555 199.374 159.796 200.043 159.86C200.259 159.879 200.496 159.879 200.752 159.857C201.65 159.784 202.162 160.045 202.741 160.365C202.78 160.265 202.826 160.163 202.878 160.059C203.135 158.759 204 157.824 205.14 157.053C205.317 158.299 205.377 159.57 205.275 160.885L205.275 160.885ZM201.494 172.457C201.437 171.879 201.406 171.294 201.4 170.708C200.305 170.499 199.171 170.416 198.031 170.431C196.649 170.447 195.269 170.603 193.943 170.846L192.979 171.022L193.56 170.232C193.807 169.894 194.056 169.555 194.304 169.215C193.556 168.893 192.719 168.694 191.793 168.62C190.679 168.528 189.441 168.62 188.082 168.891L187.343 169.037L187.649 168.351C187.856 167.882 188.066 167.414 188.274 166.945C187.544 166.356 186.814 165.768 186.085 165.178L185.627 164.809L186.146 164.531C186.537 164.324 186.929 164.115 187.319 163.905C187.288 163.751 187.212 163.595 187.09 163.433C186.886 163.161 186.561 162.882 186.118 162.597L185.939 162.479V162.268V160.498V160.038L186.394 160.114C187.156 160.241 187.855 160.399 188.49 160.59C189.02 160.749 189.504 160.929 189.948 161.132C190.186 160.827 190.387 160.524 190.549 160.221C190.75 159.849 190.894 159.477 190.979 159.108L191.123 158.478L191.614 158.9C191.965 159.204 192.285 159.508 192.572 159.811C192.7 159.947 192.822 160.081 192.938 160.216C192.959 160.165 192.981 160.114 193.003 160.064C193.112 159.815 193.22 159.567 193.33 159.319L193.556 158.801L193.96 159.197C194.714 159.936 195.417 160.709 196.083 161.505C196.477 161.977 196.86 162.462 197.239 162.96C197.229 162.736 197.218 162.511 197.207 162.287L197.164 161.393L197.849 161.969C198.73 162.709 199.586 163.427 200.38 164.173C200.946 164.704 201.461 165.236 201.906 165.78C202.146 164.596 202.468 163.397 202.863 162.191C202.679 161.876 202.573 161.537 202.577 161.164C202.528 161.138 202.479 161.11 202.43 161.084C201.938 160.812 201.523 160.581 200.815 160.639H200.814C200.535 160.662 200.253 160.661 199.972 160.634C199.123 160.556 198.385 160.238 197.834 159.701C197.284 159.16 196.93 158.41 196.852 157.465C196.829 157.188 196.832 156.881 196.864 156.544C196.884 156.334 196.904 156.002 196.925 155.669C197.051 153.662 197.18 151.605 199.752 150.342C200.405 150.021 201.135 150.016 201.82 150.169C202.522 150.326 203.182 150.653 203.651 150.973C203.667 150.944 203.683 150.915 203.7 150.884C204.526 149.378 205.791 147.08 208.354 147.132C209.409 147.154 210.444 147.75 211.239 148.598C212.07 149.488 212.653 150.666 212.722 151.756C212.77 152.479 212.465 153.098 212.158 153.716C212.141 153.751 212.124 153.784 212.107 153.819C212.168 153.798 212.231 153.778 212.29 153.759C212.972 153.533 213.654 153.308 214.602 153.432C215.757 153.582 216.624 153.998 217.236 154.627C217.893 155.303 218.246 156.205 218.34 157.272C218.452 158.579 217.579 159.844 216.362 160.834C214.922 162.005 212.97 162.807 211.654 162.814C210.492 162.818 209.622 162.543 208.771 162.273C208.242 162.106 207.722 161.94 207.158 161.858C206.588 161.773 206.013 161.715 205.43 161.679H205.428C205.282 161.669 205.135 161.662 204.99 161.656C204.629 162.053 204.141 162.326 203.577 162.521C203.057 164.134 202.666 165.722 202.43 167.282C202.4 167.676 202.344 168.063 202.285 168.446C202.153 169.782 202.142 171.094 202.268 172.381" fill="white"/>
<path d="M191.006 159.611C189.999 157.702 188.735 154.87 187.447 151.981C185.73 148.129 183.967 144.176 182.832 142.295C182.493 143.311 182.166 144.667 181.821 146.091C181.244 148.485 180.621 151.066 179.775 152.684L178.741 154.668L179.043 152.453C179.169 151.542 179.094 150.2 179.014 148.766C178.804 144.962 178.558 140.529 181.808 140.385C182.031 140.375 182.294 140.539 182.585 140.845C182.71 140.601 182.839 140.399 182.976 140.247C183.43 139.739 183.925 139.655 184.481 140.154C187.543 142.888 188.929 147.282 190.317 151.684C191.206 154.501 192.096 157.322 193.42 159.667L193.8 160.341L193.032 160.246C192.788 160.215 192.449 160.116 192.108 160.018C191.804 159.929 191.499 159.84 191.304 159.816L191.101 159.79L191.006 159.611H191.006ZM188.159 151.664C189.401 154.45 190.621 157.183 191.608 159.079C191.819 159.122 192.072 159.196 192.323 159.269C191.184 157.028 190.377 154.472 189.573 151.918C188.217 147.62 186.863 143.331 183.96 140.736C183.815 140.607 183.682 140.631 183.558 140.769C183.411 140.936 183.265 141.192 183.125 141.516C184.498 143.458 186.353 147.614 188.159 151.664V151.664ZM182.294 141.504C182.109 141.281 181.956 141.161 181.842 141.166C179.384 141.276 179.604 145.285 179.795 148.723C179.828 149.288 179.858 149.838 179.875 150.358C180.317 149.008 180.701 147.421 181.064 145.908C181.472 144.22 181.858 142.625 182.294 141.504" fill="white"/>
<path fill-rule="evenodd" clip-rule="evenodd" d="M194.375 133.294C194.271 134.525 193.885 135.301 192.905 136.461C192.063 137.123 190.654 137.688 190.455 137.049C189.966 136.317 191.132 135.072 191.559 134.673C192.292 133.988 193.329 133.544 194.375 133.294Z" fill="white" stroke="#EB1923" stroke-width="0.75" stroke-miterlimit="10"/>
<path fill-rule="evenodd" clip-rule="evenodd" d="M194.375 133.294C194.271 134.525 193.885 135.301 192.905 136.461C192.063 137.123 190.654 137.688 190.455 137.049C189.966 136.317 191.132 135.072 191.559 134.673C192.292 133.988 193.329 133.544 194.375 133.294Z" fill="white" stroke="#EB1923" stroke-width="0.75" stroke-miterlimit="10"/>
<path fill-rule="evenodd" clip-rule="evenodd" d="M191.619 130.613C192.163 131.72 192.23 132.586 191.989 134.083C191.608 135.087 190.691 136.297 190.192 135.85C189.395 135.475 189.753 133.808 189.913 133.246C190.188 132.279 190.85 131.366 191.619 130.613V130.613Z" fill="#004226" stroke="white" stroke-width="0.75" stroke-miterlimit="10"/>
<path fill-rule="evenodd" clip-rule="evenodd" d="M194.375 133.294C194.271 134.525 193.885 135.301 192.905 136.461C192.063 137.123 190.654 137.688 190.455 137.049C189.966 136.317 191.132 135.072 191.559 134.673C192.292 133.988 193.329 133.544 194.375 133.294Z" fill="#004226" stroke="white" stroke-width="0.75" stroke-miterlimit="10"/>
<path fill-rule="evenodd" clip-rule="evenodd" d="M194.7 135.514C194.597 136.745 194.21 137.521 193.231 138.682C192.389 139.344 190.979 139.909 190.78 139.269C190.291 138.538 191.456 137.293 191.884 136.894C192.617 136.206 193.654 135.764 194.7 135.514Z" fill="#004226" stroke="white" stroke-width="0.75" stroke-miterlimit="10"/>
<path fill-rule="evenodd" clip-rule="evenodd" d="M195.242 137.896C195.138 139.127 194.752 139.903 193.772 141.063C192.93 141.728 191.521 142.29 191.322 141.652C190.833 140.922 191.998 139.674 192.426 139.276C193.159 138.59 194.194 138.147 195.242 137.896V137.896Z" fill="#004226" stroke="white" stroke-width="0.75" stroke-miterlimit="10"/>
<path fill-rule="evenodd" clip-rule="evenodd" d="M195.839 140.387C195.734 141.619 195.347 142.394 194.368 143.555C193.525 144.218 192.115 144.781 191.916 144.142C191.427 143.412 192.593 142.167 193.02 141.767C193.755 141.081 194.79 140.637 195.839 140.387Z" fill="#004226" stroke="white" stroke-width="0.75" stroke-miterlimit="10"/>
<path fill-rule="evenodd" clip-rule="evenodd" d="M196.326 142.877C196.222 144.109 195.834 144.884 194.855 146.045C194.012 146.708 192.603 147.272 192.405 146.632C191.915 145.902 193.081 144.657 193.508 144.257C194.241 143.571 195.277 143.128 196.326 142.877Z" fill="#004226" stroke="white" stroke-width="0.75" stroke-miterlimit="10"/>
<path fill-rule="evenodd" clip-rule="evenodd" d="M196.65 145.368C196.547 146.599 196.16 147.375 195.179 148.535C194.337 149.199 192.927 149.762 192.731 149.125C192.241 148.394 193.405 147.147 193.832 146.75C194.565 146.062 195.602 145.619 196.65 145.368Z" fill="#004226" stroke="white" stroke-width="0.75" stroke-miterlimit="10"/>
<path fill-rule="evenodd" clip-rule="evenodd" d="M196.975 147.799C196.871 149.03 196.484 149.805 195.504 150.966C194.662 151.629 193.252 152.194 193.055 151.554C192.566 150.823 193.731 149.578 194.158 149.179C194.891 148.493 195.928 148.048 196.975 147.799V147.799Z" fill="#004226" stroke="white" stroke-width="0.75" stroke-miterlimit="10"/>
<path fill-rule="evenodd" clip-rule="evenodd" d="M197.734 149.916C197.628 151.148 197.242 151.923 196.262 153.085C195.42 153.747 194.011 154.311 193.812 153.672C193.323 152.941 194.489 151.696 194.916 151.295C195.649 150.611 196.686 150.167 197.734 149.916Z" fill="#004226" stroke="white" stroke-width="0.75" stroke-miterlimit="10"/>
<path fill-rule="evenodd" clip-rule="evenodd" d="M187.234 130.15C188.34 130.7 188.921 131.345 189.639 132.683C189.946 133.71 189.95 135.228 189.285 135.178C188.424 135.364 187.695 133.822 187.482 133.278C187.112 132.343 187.081 131.217 187.234 130.15Z" fill="#004226" stroke="white" stroke-width="0.75" stroke-miterlimit="10"/>
<path fill-rule="evenodd" clip-rule="evenodd" d="M186.567 134.752C187.786 134.96 188.525 135.41 189.6 136.485C190.188 137.379 190.631 138.832 189.978 138.976C189.209 139.402 188.066 138.135 187.704 137.676C187.081 136.887 186.729 135.817 186.567 134.752V134.752Z" fill="#004226" stroke="white" stroke-width="0.75" stroke-miterlimit="10"/>
<path fill-rule="evenodd" clip-rule="evenodd" d="M187.324 137.567C188.544 137.775 189.283 138.227 190.358 139.301C190.947 140.196 191.389 141.648 190.736 141.791C189.967 142.217 188.824 140.951 188.462 140.491C187.839 139.702 187.485 138.633 187.324 137.567Z" fill="#004226" stroke="white" stroke-width="0.75" stroke-miterlimit="10"/>
<path fill-rule="evenodd" clip-rule="evenodd" d="M187.812 140.491C189.031 140.698 189.771 141.15 190.845 142.224C191.433 143.119 191.876 144.572 191.223 144.715C190.454 145.141 189.312 143.876 188.949 143.415C188.326 142.626 187.974 141.558 187.812 140.491V140.491Z" fill="#004226" stroke="white" stroke-width="0.75" stroke-miterlimit="10"/>
<path fill-rule="evenodd" clip-rule="evenodd" d="M188.571 143.578C189.789 143.786 190.529 144.237 191.603 145.31C192.192 146.205 192.634 147.658 191.981 147.802C191.212 148.228 190.07 146.961 189.707 146.502C189.084 145.713 188.73 144.643 188.571 143.578Z" fill="#004226" stroke="white" stroke-width="0.75" stroke-miterlimit="10"/>
<path fill-rule="evenodd" clip-rule="evenodd" d="M189.219 146.502C190.438 146.709 191.179 147.161 192.253 148.235C192.842 149.13 193.284 150.583 192.632 150.725C191.863 151.151 190.719 149.884 190.358 149.425C189.735 148.637 189.381 147.567 189.219 146.502Z" fill="#004226" stroke="white" stroke-width="0.75" stroke-miterlimit="10"/>
<path fill-rule="evenodd" clip-rule="evenodd" d="M190.249 149.54C191.467 149.748 192.207 150.199 193.281 151.273C193.87 152.169 194.313 153.622 193.66 153.764C192.891 154.191 191.748 152.924 191.387 152.465C190.764 151.674 190.411 150.607 190.249 149.54Z" fill="#004226" stroke="white" stroke-width="0.75" stroke-miterlimit="10"/>
<path fill-rule="evenodd" clip-rule="evenodd" d="M190.736 152.134C191.953 152.342 192.694 152.792 193.768 153.866C194.357 154.761 194.801 156.214 194.148 156.356C193.378 156.784 192.234 155.517 191.873 155.058C191.252 154.269 190.898 153.198 190.736 152.134Z" fill="#004226" stroke="white" stroke-width="0.75" stroke-miterlimit="10"/>
<path d="M191.592 130.75L192.537 127.548" stroke="white" stroke-width="0.75" stroke-miterlimit="10"/>
<path d="M187.395 130.487L186.921 125.396" stroke="white" stroke-width="0.75" stroke-miterlimit="10"/>
<path d="M184.297 131.957L186.816 134.948" stroke="white" stroke-width="0.75" stroke-miterlimit="10"/>
<path d="M199.675 150.799C195.984 140.93 196.16 121.942 188.496 121.984C186.111 122.077 185.178 123.943 184.873 125.501C185.518 124.639 185.969 124.301 187.341 123.559" stroke="white" stroke-width="0.75" stroke-miterlimit="10"/>
<path d="M195.09 122.194C193.008 121.74 190.684 122.168 188.882 122.834" stroke="white" stroke-width="0.75" stroke-miterlimit="10"/>
<path d="M198.153 145.025C198.58 139.789 198.287 132.941 197.734 127.707" stroke="white" stroke-width="0.75" stroke-miterlimit="10"/>
<path d="M199.922 128.944C198.901 123.351 195.273 116.565 193.413 116.46C190.745 117.381 189.625 120.36 189.067 123.917C188.831 121.73 187.96 119.579 190.253 117.25C193.235 116.461 197.419 125.863 200.178 135.424" stroke="white" stroke-width="0.75" stroke-miterlimit="10"/>
<path d="M199.29 149.45C201.266 144.125 202.74 136.281 205.709 135.918C208.822 136.028 209.126 140.325 210.598 143.327C210.466 140.761 210.812 136.278 209.165 136.215C208.114 136.315 202.078 146.298 199.783 150.585" stroke="white" stroke-width="0.75" stroke-miterlimit="10"/>
<path d="M201.117 143.671C201.416 136.613 205.128 127.072 207.488 126.979C209.346 127.069 210.372 129.35 211.685 134.091C211.611 131.952 213.157 128.163 210.994 127.77C207.025 127.628 205.381 132.069 202.549 139.918" stroke="white" stroke-width="0.75" stroke-miterlimit="10"/>
<path d="M198.901 148.156C200.105 137.407 200.31 122.318 205.869 122.37C208.197 122.499 211.489 126.792 213.223 129.627C212.41 126.674 213.474 122.824 207.539 123.333C203.188 123.413 202.516 136.835 200.701 145.298" stroke="white" stroke-width="0.75" stroke-miterlimit="10"/>
<path d="M199.543 133.656C199.757 127.219 201.641 116.16 205.698 116.095C207.388 116.155 208.679 121.14 209.681 123.988C209.572 121.587 211.458 116.687 208.234 116.784C206.198 116.72 202.397 123.085 201.498 127.465" stroke="white" stroke-width="0.75" stroke-miterlimit="10"/>
<path fill-rule="evenodd" clip-rule="evenodd" d="M218.911 141.179C217.864 141.132 220.73 138.31 222.071 137.182C223.744 135.777 226.776 134.474 227.449 134.588C227.957 134.673 225.798 138.164 224.342 139.289C222.743 140.524 220.356 141.245 218.911 141.179Z" fill="#004226" stroke="white" stroke-width="0.75" stroke-miterlimit="10"/>
<path d="M227.509 134.588L229.18 133.571" stroke="white" stroke-width="0.75" stroke-miterlimit="10"/>
<path fill-rule="evenodd" clip-rule="evenodd" d="M222.278 140.246C221.956 141.245 219.99 137.733 219.257 136.142C218.344 134.157 217.889 130.889 218.174 130.271C218.391 129.802 221.188 132.807 221.888 134.508C222.656 136.376 222.723 138.869 222.278 140.246Z" fill="#004226" stroke="white" stroke-width="0.75" stroke-miterlimit="10"/>
<path d="M218.191 130.213L217.651 128.333" stroke="white" stroke-width="0.75" stroke-miterlimit="10"/>
<path fill-rule="evenodd" clip-rule="evenodd" d="M220.753 143.151C220.431 144.151 218.464 140.639 217.731 139.047C216.818 137.062 216.364 133.794 216.65 133.177C216.866 132.708 219.663 135.714 220.363 137.414C221.132 139.281 221.198 141.774 220.753 143.151Z" fill="#004226" stroke="white" stroke-width="0.75" stroke-miterlimit="10"/>
<path d="M216.665 133.119L216.127 131.239" stroke="white" stroke-width="0.75" stroke-miterlimit="10"/>
<path fill-rule="evenodd" clip-rule="evenodd" d="M219.009 145.766C218.686 146.765 216.721 143.255 215.988 141.662C215.073 139.678 214.619 136.41 214.906 135.791C215.122 135.324 217.92 138.328 218.621 140.028C219.387 141.896 219.454 144.39 219.009 145.766V145.766Z" fill="#004226" stroke="white" stroke-width="0.75" stroke-miterlimit="10"/>
<path d="M214.923 135.734L214.382 133.854" stroke="white" stroke-width="0.75" stroke-miterlimit="10"/>
<path fill-rule="evenodd" clip-rule="evenodd" d="M217.775 148.382C217.452 149.379 215.486 145.868 214.753 144.276C213.839 142.294 213.385 139.025 213.672 138.405C213.888 137.938 216.685 140.943 217.385 142.644C218.153 144.512 218.219 147.003 217.775 148.382V148.382Z" fill="#004226" stroke="white" stroke-width="0.75" stroke-miterlimit="10"/>
<path d="M213.686 138.349L213.148 136.469" stroke="white" stroke-width="0.75" stroke-miterlimit="10"/>
<path fill-rule="evenodd" clip-rule="evenodd" d="M216.395 151.214C216.072 152.213 214.106 148.703 213.373 147.108C212.46 145.126 212.006 141.857 212.292 141.239C212.507 140.77 215.305 143.776 216.005 145.477C216.774 147.345 216.84 149.838 216.395 151.214Z" fill="#004226" stroke="white" stroke-width="0.75" stroke-miterlimit="10"/>
<path d="M212.307 141.183L211.768 139.303" stroke="white" stroke-width="0.75" stroke-miterlimit="10"/>
<path fill-rule="evenodd" clip-rule="evenodd" d="M214.724 153.394C214.401 154.392 212.435 150.88 211.702 149.289C210.789 147.304 210.334 144.036 210.621 143.418C210.837 142.951 213.635 145.956 214.334 147.656C215.103 149.524 215.168 152.016 214.724 153.394Z" fill="#004226" stroke="white" stroke-width="0.75" stroke-miterlimit="10"/>
<path d="M210.637 143.361L210.098 141.481" stroke="white" stroke-width="0.75" stroke-miterlimit="10"/>
<path fill-rule="evenodd" clip-rule="evenodd" d="M217.459 144.377C216.411 144.329 219.277 141.505 220.619 140.377C222.291 138.974 225.323 137.67 225.996 137.782C226.504 137.868 224.346 141.359 222.889 142.484C221.29 143.719 218.904 144.44 217.459 144.377V144.377Z" fill="#004226" stroke="white" stroke-width="0.75" stroke-miterlimit="10"/>
<path d="M226.056 137.785L227.725 136.767" stroke="white" stroke-width="0.75" stroke-miterlimit="10"/>
<path fill-rule="evenodd" clip-rule="evenodd" d="M216.078 147.355C215.029 147.307 217.897 144.483 219.24 143.356C220.912 141.95 223.944 140.648 224.616 140.761C225.123 140.846 222.964 144.337 221.509 145.463C219.911 146.697 217.524 147.418 216.078 147.355Z" fill="#004226" stroke="white" stroke-width="0.75" stroke-miterlimit="10"/>
<path d="M224.675 140.761L226.345 139.745" stroke="white" stroke-width="0.75" stroke-miterlimit="10"/>
<path fill-rule="evenodd" clip-rule="evenodd" d="M218.842 141.994C217.93 142.514 218.845 138.596 219.379 136.925C220.042 134.844 221.909 132.126 222.539 131.861C223.015 131.662 223.053 135.766 222.422 137.494C221.731 139.391 220.099 141.277 218.842 141.994Z" fill="#004226" stroke="white" stroke-width="0.75" stroke-miterlimit="10"/>
<path d="M222.589 131.83L223.458 130.077" stroke="white" stroke-width="0.75" stroke-miterlimit="10"/>
<path fill-rule="evenodd" clip-rule="evenodd" d="M218.113 146.525C217.279 147.161 217.668 143.156 217.975 141.43C218.356 139.28 219.846 136.337 220.436 135.992C220.88 135.73 221.462 139.794 221.067 141.591C220.632 143.564 219.264 145.647 218.113 146.525Z" fill="#004226" stroke="white" stroke-width="0.75" stroke-miterlimit="10"/>
<path d="M220.481 135.954L221.112 134.103" stroke="white" stroke-width="0.75" stroke-miterlimit="10"/>
<path d="M220.961 146.952L222.756 146.177" stroke="white" stroke-width="0.75" stroke-miterlimit="10"/>
<path d="M218.854 150.22L220.649 149.445" stroke="white" stroke-width="0.75" stroke-miterlimit="10"/>
<path d="M210.918 147.077C209.739 146.945 209.152 145.985 208.65 144.91" stroke="white" stroke-width="0.75" stroke-miterlimit="10"/>
<path d="M209.153 147.681L209.355 146.271" stroke="white" stroke-width="0.75" stroke-miterlimit="10"/>
<path d="M217.788 113.056C216.987 113.08 216.493 113.823 215.695 113.822M192.676 113.056C193.477 113.08 193.971 113.823 194.769 113.822L192.676 113.056ZM192.676 113.056C193.477 113.08 193.971 113.823 194.769 113.822L192.676 113.056ZM192.676 113.056C191.875 113.08 191.379 113.823 190.583 113.822L192.676 113.056ZM188.49 113.056C189.291 113.08 189.785 113.823 190.583 113.822L188.49 113.056ZM188.49 113.056C187.689 113.08 187.195 113.823 186.398 113.822L188.49 113.056ZM184.304 113.056C185.107 113.08 185.602 113.823 186.398 113.822L184.304 113.056ZM184.304 113.056C183.503 113.08 183.009 113.823 182.212 113.822L184.304 113.056ZM180.12 113.056C180.922 113.08 181.416 113.823 182.212 113.822L180.12 113.056ZM196.86 113.056C196.06 113.08 195.565 113.823 194.769 113.822L196.86 113.056ZM196.86 113.056C197.662 113.08 198.157 113.823 198.955 113.822L196.86 113.056ZM201.046 113.056C200.245 113.08 199.751 113.823 198.955 113.822L201.046 113.056ZM201.046 113.056C201.848 113.08 202.341 113.823 203.14 113.822L201.046 113.056ZM205.232 113.056C204.431 113.08 203.937 113.823 203.14 113.822L205.232 113.056ZM205.232 113.056C206.033 113.08 206.527 113.823 207.325 113.822L205.232 113.056ZM209.418 113.056C208.616 113.08 208.123 113.823 207.324 113.822L209.418 113.056ZM209.418 113.056C210.219 113.08 210.713 113.823 211.511 113.822L209.418 113.056ZM213.604 113.056C212.802 113.08 212.307 113.823 211.509 113.822L213.604 113.056ZM213.604 113.056C214.404 113.08 214.899 113.823 215.695 113.822L213.604 113.056Z" stroke="white" stroke-width="0.75" stroke-miterlimit="10"/>
<path d="M176.35 117.997C175.549 118.019 175.055 118.762 174.257 118.761M180.536 117.997C181.337 118.019 181.831 118.762 182.627 118.761L180.536 117.997ZM184.722 117.997C183.92 118.019 183.425 118.762 182.627 118.761L184.722 117.997ZM184.722 117.997C185.522 118.019 186.017 118.762 186.813 118.761L184.722 117.997ZM189.573 117.885C188.105 117.853 187.611 118.762 186.813 118.761L189.573 117.885ZM197.278 117.997C196.477 118.019 196.482 118.512 195.686 118.512L197.278 117.997ZM197.278 117.997C198.08 118.019 198.574 118.762 199.371 118.761L197.278 117.997ZM201.465 117.997C200.662 118.019 200.167 118.762 199.371 118.761L201.465 117.997ZM201.462 117.997C202.266 118.019 202.036 118.457 202.833 118.456L201.462 117.997ZM209.834 117.997C210.635 118.019 211.129 118.762 211.927 118.761L209.834 117.997ZM214.02 117.997C213.218 118.019 212.725 118.762 211.927 118.761L214.02 117.997ZM214.02 117.997C214.821 118.019 215.315 118.762 216.113 118.761L214.02 117.997ZM218.206 117.997C217.404 118.019 216.909 118.762 216.111 118.761L218.206 117.997ZM218.206 117.997C219.006 118.019 219.501 118.762 220.297 118.761L218.206 117.997ZM222.39 117.997C221.589 118.019 221.095 118.762 220.297 118.761L222.39 117.997ZM222.39 117.997C223.191 118.019 223.687 118.762 224.482 118.761L222.39 117.997ZM180.536 117.997C179.733 118.019 179.238 118.762 178.442 118.761L180.536 117.997ZM176.35 117.997C177.151 118.019 177.645 118.762 178.442 118.761L176.35 117.997Z" stroke="white" stroke-width="0.75" stroke-miterlimit="10"/>
<path d="M175.104 123.454C174.301 123.476 173.806 124.219 173.01 124.219" stroke="white" stroke-width="0.75" stroke-miterlimit="10"/>
<path d="M175.104 123.454C175.905 123.476 176.399 124.219 177.195 124.219" stroke="white" stroke-width="0.75" stroke-miterlimit="10"/>
<path d="M179.29 123.454C178.486 123.476 177.992 124.219 177.195 124.219" stroke="white" stroke-width="0.75" stroke-miterlimit="10"/>
<path d="M179.29 123.454C180.09 123.476 180.585 124.219 181.381 124.219" stroke="white" stroke-width="0.75" stroke-miterlimit="10"/>
<path d="M183.474 123.454C182.673 123.476 182.179 124.219 181.381 124.219" stroke="white" stroke-width="0.75" stroke-miterlimit="10"/>
<path d="M183.474 123.454C184.275 123.476 184.771 124.219 185.566 124.219" stroke="white" stroke-width="0.75" stroke-miterlimit="10"/>
<path d="M170.917 123.454C171.719 123.476 172.213 124.219 173.01 124.219" stroke="white" stroke-width="0.75" stroke-miterlimit="10"/>
<path d="M170.918 123.454C170.115 123.476 169.622 124.219 168.824 124.219" stroke="white" stroke-width="0.75" stroke-miterlimit="10"/>
<path d="M212.988 122.907C212.188 122.93 211.692 123.675 210.895 123.673" stroke="white" stroke-width="0.75" stroke-miterlimit="10"/>
<path d="M212.988 122.907C213.789 122.93 214.283 123.675 215.081 123.673" stroke="white" stroke-width="0.75" stroke-miterlimit="10"/>
<path d="M217.173 122.907C216.371 122.93 215.876 123.675 215.081 123.673" stroke="white" stroke-width="0.75" stroke-miterlimit="10"/>
<path d="M217.173 122.907C217.975 122.93 218.469 123.675 219.265 123.673" stroke="white" stroke-width="0.75" stroke-miterlimit="10"/>
<path d="M221.359 122.907C220.557 122.93 220.062 123.675 219.265 123.673" stroke="white" stroke-width="0.75" stroke-miterlimit="10"/>
<path d="M221.357 122.907C222.161 122.93 222.654 123.675 223.451 123.673" stroke="white" stroke-width="0.75" stroke-miterlimit="10"/>
<path d="M225.544 122.907C224.741 122.93 224.248 123.675 223.451 123.673" stroke="white" stroke-width="0.75" stroke-miterlimit="10"/>
<path d="M225.543 122.907C226.345 122.93 226.84 123.675 227.637 123.673" stroke="white" stroke-width="0.75" stroke-miterlimit="10"/>
<path d="M229.729 122.907C228.927 122.93 228.433 123.675 227.637 123.673" stroke="white" stroke-width="0.75" stroke-miterlimit="10"/>
<path d="M171.438 128.832C170.637 128.855 170.143 129.6 169.346 129.599" stroke="white" stroke-width="0.75" stroke-miterlimit="10"/>
<path d="M171.438 128.832C172.241 128.855 172.736 129.6 173.531 129.599" stroke="white" stroke-width="0.75" stroke-miterlimit="10"/>
<path d="M175.625 128.832C174.823 128.855 174.329 129.6 173.531 129.599" stroke="white" stroke-width="0.75" stroke-miterlimit="10"/>
<path d="M175.625 128.832C176.426 128.855 176.921 129.6 177.717 129.599" stroke="white" stroke-width="0.75" stroke-miterlimit="10"/>
<path d="M179.811 128.832C179.009 128.855 178.513 129.6 177.717 129.599" stroke="white" stroke-width="0.75" stroke-miterlimit="10"/>
<path d="M179.811 128.832C180.612 128.855 181.106 129.6 181.903 129.599" stroke="white" stroke-width="0.75" stroke-miterlimit="10"/>
<path d="M183.997 128.832C183.196 128.855 182.7 129.6 181.903 129.599" stroke="white" stroke-width="0.75" stroke-miterlimit="10"/>
<path d="M183.997 128.832C184.797 128.855 185.292 129.6 186.09 129.599" stroke="white" stroke-width="0.75" stroke-miterlimit="10"/>
<path d="M187.329 129.101C187.094 129.102 186.886 129.6 186.09 129.599" stroke="white" stroke-width="0.75" stroke-miterlimit="10"/>
<path d="M167.253 128.832C168.055 128.855 168.55 129.6 169.346 129.599" stroke="white" stroke-width="0.75" stroke-miterlimit="10"/>
<path d="M167.255 128.832C166.451 128.855 165.957 129.6 165.161 129.599" stroke="white" stroke-width="0.75" stroke-miterlimit="10"/>
<path d="M217.275 128.285C216.473 128.308 215.979 129.053 215.182 129.052" stroke="white" stroke-width="0.75" stroke-miterlimit="10"/>
<path d="M213.088 128.285C213.892 128.308 214.386 129.053 215.182 129.052" stroke="white" stroke-width="0.75" stroke-miterlimit="10"/>
<path d="M217.274 128.285C218.076 128.308 218.572 129.053 219.368 129.052" stroke="white" stroke-width="0.75" stroke-miterlimit="10"/>
<path d="M221.461 128.285C220.659 128.308 220.164 129.053 219.368 129.052" stroke="white" stroke-width="0.75" stroke-miterlimit="10"/>
<path d="M221.46 128.285C222.262 128.308 222.756 129.053 223.553 129.052" stroke="white" stroke-width="0.75" stroke-miterlimit="10"/>
<path d="M225.645 128.285C224.844 128.308 224.349 129.053 223.553 129.052" stroke="white" stroke-width="0.75" stroke-miterlimit="10"/>
<path d="M225.645 128.285C226.448 128.308 226.942 129.053 227.739 129.052" stroke="white" stroke-width="0.75" stroke-miterlimit="10"/>
<path d="M229.83 128.285C229.03 128.308 228.535 129.053 227.739 129.052" stroke="white" stroke-width="0.75" stroke-miterlimit="10"/>
<path d="M229.83 128.285C230.632 128.308 231.125 129.053 231.924 129.052" stroke="white" stroke-width="0.75" stroke-miterlimit="10"/>
<path d="M234.016 128.285C233.215 128.308 232.721 129.053 231.924 129.052" stroke="white" stroke-width="0.75" stroke-miterlimit="10"/>
<path d="M169.995 133.531C169.194 133.555 168.699 134.298 167.903 134.296" stroke="white" stroke-width="0.75" stroke-miterlimit="10"/>
<path d="M169.995 133.531C170.796 133.555 171.29 134.298 172.089 134.296" stroke="white" stroke-width="0.75" stroke-miterlimit="10"/>
<path d="M174.18 133.531C173.379 133.555 172.885 134.298 172.089 134.296" stroke="white" stroke-width="0.75" stroke-miterlimit="10"/>
<path d="M174.18 133.531C174.983 133.555 175.477 134.298 176.274 134.296" stroke="white" stroke-width="0.75" stroke-miterlimit="10"/>
<path d="M178.365 133.531C177.565 133.555 177.07 134.298 176.274 134.296" stroke="white" stroke-width="0.75" stroke-miterlimit="10"/>
<path d="M178.365 133.531C179.169 133.555 179.663 134.298 180.459 134.296" stroke="white" stroke-width="0.75" stroke-miterlimit="10"/>
<path d="M182.552 133.531C181.75 133.555 181.256 134.298 180.459 134.296" stroke="white" stroke-width="0.75" stroke-miterlimit="10"/>
<path d="M182.552 133.531C183.354 133.555 183.848 134.298 184.645 134.296" stroke="white" stroke-width="0.75" stroke-miterlimit="10"/>
<path d="M185.881 133.831C185.695 133.795 185.442 134.298 184.645 134.296" stroke="white" stroke-width="0.75" stroke-miterlimit="10"/>
<path d="M165.809 133.531C166.61 133.555 167.104 134.298 167.903 134.296" stroke="white" stroke-width="0.75" stroke-miterlimit="10"/>
<path d="M165.809 133.531C165.009 133.555 164.514 134.298 163.717 134.296" stroke="white" stroke-width="0.75" stroke-miterlimit="10"/>
<path d="M208.791 133.25C207.989 133.273 207.495 134.018 206.698 134.015" stroke="white" stroke-width="0.75" stroke-miterlimit="10"/>
<path d="M208.79 133.25C209.592 133.273 210.088 134.018 210.884 134.015" stroke="white" stroke-width="0.75" stroke-miterlimit="10"/>
<path d="M211.708 133.791C211.587 133.814 211.68 134.018 210.884 134.015" stroke="white" stroke-width="0.75" stroke-miterlimit="10"/>
<path d="M204.604 133.25C205.408 133.273 205.902 134.018 206.698 134.015" stroke="white" stroke-width="0.75" stroke-miterlimit="10"/>
<path d="M226.321 133.135C225.519 133.158 225.024 133.903 224.227 133.9" stroke="white" stroke-width="0.75" stroke-miterlimit="10"/>
<path d="M222.933 133.372C223.195 133.347 223.431 133.903 224.227 133.9" stroke="white" stroke-width="0.75" stroke-miterlimit="10"/>
<path d="M226.321 133.135C227.122 133.158 227.617 133.903 228.413 133.9" stroke="white" stroke-width="0.75" stroke-miterlimit="10"/>
<path d="M230.507 133.135C229.705 133.158 229.209 133.903 228.413 133.9" stroke="white" stroke-width="0.75" stroke-miterlimit="10"/>
<path d="M230.507 133.135C231.307 133.158 231.802 133.903 232.599 133.9" stroke="white" stroke-width="0.75" stroke-miterlimit="10"/>
<path d="M234.692 133.135C233.889 133.158 233.395 133.903 232.599 133.9" stroke="white" stroke-width="0.75" stroke-miterlimit="10"/>
<path d="M168.03 138.747C167.229 138.77 166.733 139.514 165.938 139.513" stroke="white" stroke-width="0.75" stroke-miterlimit="10"/>
<path d="M168.03 138.747C168.832 138.77 169.326 139.514 170.123 139.513" stroke="white" stroke-width="0.75" stroke-miterlimit="10"/>
<path d="M172.214 138.747C171.414 138.77 170.919 139.514 170.123 139.513" stroke="white" stroke-width="0.75" stroke-miterlimit="10"/>
<path d="M172.214 138.747C173.018 138.77 173.512 139.514 174.309 139.513" stroke="white" stroke-width="0.75" stroke-miterlimit="10"/>
<path d="M176.401 138.747C175.599 138.77 175.105 139.514 174.309 139.513" stroke="white" stroke-width="0.75" stroke-miterlimit="10"/>
<path d="M176.401 138.747C177.203 138.77 177.698 139.514 178.494 139.513" stroke="white" stroke-width="0.75" stroke-miterlimit="10"/>
<path d="M180.587 138.747C179.785 138.77 179.291 139.514 178.494 139.513" stroke="white" stroke-width="0.75" stroke-miterlimit="10"/>
<path d="M180.587 138.747C181.389 138.77 181.882 139.514 182.679 139.513" stroke="white" stroke-width="0.75" stroke-miterlimit="10"/>
<path d="M184.773 138.747C183.972 138.77 183.478 139.514 182.679 139.513" stroke="white" stroke-width="0.75" stroke-miterlimit="10"/>
<path d="M184.773 138.747C185.574 138.77 186.068 139.514 186.866 139.513" stroke="white" stroke-width="0.75" stroke-miterlimit="10"/>
<path d="M187.827 139.185C187.709 139.19 187.664 139.514 186.866 139.513" stroke="white" stroke-width="0.75" stroke-miterlimit="10"/>
<path d="M163.844 138.747C164.646 138.77 165.142 139.514 165.938 139.513" stroke="white" stroke-width="0.75" stroke-miterlimit="10"/>
<path d="M226.124 137.736C226.926 137.758 227.422 138.502 228.218 138.501" stroke="white" stroke-width="0.75" stroke-miterlimit="10"/>
<path d="M230.31 137.736C229.509 137.758 229.014 138.502 228.218 138.501" stroke="white" stroke-width="0.75" stroke-miterlimit="10"/>
<path d="M230.31 137.736C231.112 137.758 231.606 138.502 232.404 138.501" stroke="white" stroke-width="0.75" stroke-miterlimit="10"/>
<path d="M234.495 137.736C233.694 137.758 233.199 138.502 232.404 138.501" stroke="white" stroke-width="0.75" stroke-miterlimit="10"/>
<path d="M234.495 137.736C235.297 137.758 235.791 138.502 236.589 138.501" stroke="white" stroke-width="0.75" stroke-miterlimit="10"/>
<path d="M179.514 143.426C178.713 143.449 178.219 144.191 177.423 144.19" stroke="white" stroke-width="0.75" stroke-miterlimit="10"/>
<path d="M175.33 143.426C176.132 143.449 176.626 144.191 177.423 144.19" stroke="white" stroke-width="0.75" stroke-miterlimit="10"/>
<path d="M175.33 143.426C174.529 143.449 174.033 144.191 173.237 144.19" stroke="white" stroke-width="0.75" stroke-miterlimit="10"/>
<path d="M171.144 143.426C171.946 143.449 172.441 144.191 173.237 144.19" stroke="white" stroke-width="0.75" stroke-miterlimit="10"/>
<path d="M171.145 143.426C170.343 143.449 169.849 144.191 169.052 144.19" stroke="white" stroke-width="0.75" stroke-miterlimit="10"/>
<path d="M166.96 143.426C167.761 143.449 168.256 144.191 169.052 144.19" stroke="white" stroke-width="0.75" stroke-miterlimit="10"/>
<path d="M166.96 143.426C166.157 143.449 165.663 144.191 164.866 144.19" stroke="white" stroke-width="0.75" stroke-miterlimit="10"/>
<path d="M162.775 143.426C163.575 143.449 164.07 144.191 164.866 144.19" stroke="white" stroke-width="0.75" stroke-miterlimit="10"/>
<path d="M225.313 143.035C224.512 143.058 224.017 143.803 223.219 143.8" stroke="white" stroke-width="0.75" stroke-miterlimit="10"/>
<path d="M225.312 143.035C226.113 143.058 226.608 143.803 227.405 143.8" stroke="white" stroke-width="0.75" stroke-miterlimit="10"/>
<path d="M229.498 143.035C228.696 143.058 228.203 143.803 227.405 143.8" stroke="white" stroke-width="0.75" stroke-miterlimit="10"/>
<path d="M229.498 143.035C230.299 143.058 230.793 143.803 231.589 143.8" stroke="white" stroke-width="0.75" stroke-miterlimit="10"/>
<path d="M233.684 143.035C232.881 143.058 232.386 143.803 231.589 143.8" stroke="white" stroke-width="0.75" stroke-miterlimit="10"/>
<path d="M233.684 143.035C234.485 143.058 234.979 143.803 235.775 143.8" stroke="white" stroke-width="0.75" stroke-miterlimit="10"/>
<path d="M179.224 148.102C178.42 148.125 177.926 148.869 177.13 148.869" stroke="white" stroke-width="0.75" stroke-miterlimit="10"/>
<path d="M175.038 148.102C175.839 148.125 176.333 148.869 177.13 148.869" stroke="white" stroke-width="0.75" stroke-miterlimit="10"/>
<path d="M175.038 148.102C174.237 148.125 173.743 148.869 172.944 148.869" stroke="white" stroke-width="0.75" stroke-miterlimit="10"/>
<path d="M170.852 148.102C171.653 148.125 172.148 148.869 172.944 148.869" stroke="white" stroke-width="0.75" stroke-miterlimit="10"/>
<path d="M170.852 148.102C170.051 148.125 169.557 148.869 168.759 148.869" stroke="white" stroke-width="0.75" stroke-miterlimit="10"/>
<path d="M166.667 148.102C167.468 148.125 167.963 148.869 168.76 148.869" stroke="white" stroke-width="0.75" stroke-miterlimit="10"/>
<path d="M166.667 148.102C165.865 148.125 165.371 148.869 164.573 148.869" stroke="white" stroke-width="0.75" stroke-miterlimit="10"/>
<path d="M162.482 148.102C163.282 148.125 163.777 148.869 164.575 148.869" stroke="white" stroke-width="0.75" stroke-miterlimit="10"/>
<path d="M180.884 148.004C181.686 148.028 182.18 148.772 182.977 148.771" stroke="white" stroke-width="0.75" stroke-miterlimit="10"/>
<path d="M185.068 148.004C184.268 148.028 183.773 148.772 182.977 148.771" stroke="white" stroke-width="0.75" stroke-miterlimit="10"/>
<path d="M185.068 148.004C185.872 148.028 186.176 148.369 186.396 148.373" stroke="white" stroke-width="0.75" stroke-miterlimit="10"/>
<path d="M220.796 147.807C221.597 147.829 222.091 148.573 222.888 148.572" stroke="white" stroke-width="0.75" stroke-miterlimit="10"/>
<path d="M224.982 147.807C224.178 147.829 223.684 148.573 222.888 148.572" stroke="white" stroke-width="0.75" stroke-miterlimit="10"/>
<path d="M224.982 147.807C225.782 147.829 226.277 148.573 227.073 148.572" stroke="white" stroke-width="0.75" stroke-miterlimit="10"/>
<path d="M229.167 147.807C228.364 147.829 227.87 148.573 227.073 148.572" stroke="white" stroke-width="0.75" stroke-miterlimit="10"/>
<path d="M229.165 147.807C229.968 147.829 230.463 148.573 231.258 148.572" stroke="white" stroke-width="0.75" stroke-miterlimit="10"/>
<path d="M233.352 147.807C232.55 147.829 232.056 148.573 231.259 148.572" stroke="white" stroke-width="0.75" stroke-miterlimit="10"/>
<path d="M233.351 147.807C234.153 147.829 234.648 148.573 235.444 148.572" stroke="white" stroke-width="0.75" stroke-miterlimit="10"/>
<path d="M166.913 152.345C166.11 152.368 165.615 153.113 164.819 153.112" stroke="white" stroke-width="0.75" stroke-miterlimit="10"/>
<path d="M166.913 152.345C167.714 152.368 168.208 153.113 169.004 153.112" stroke="white" stroke-width="0.75" stroke-miterlimit="10"/>
<path d="M171.099 152.345C170.295 152.368 169.801 153.113 169.004 153.112" stroke="white" stroke-width="0.75" stroke-miterlimit="10"/>
<path d="M171.099 152.345C171.899 152.368 172.394 153.113 173.19 153.112" stroke="white" stroke-width="0.75" stroke-miterlimit="10"/>
<path d="M175.283 152.345C174.482 152.368 173.988 153.113 173.19 153.112" stroke="white" stroke-width="0.75" stroke-miterlimit="10"/>
<path d="M175.283 152.345C176.084 152.368 176.58 153.113 177.375 153.112" stroke="white" stroke-width="0.75" stroke-miterlimit="10"/>
<path d="M179.469 152.345C178.668 152.368 178.174 153.113 177.375 153.112" stroke="white" stroke-width="0.75" stroke-miterlimit="10"/>
<path d="M179.469 152.345C180.27 152.368 180.764 153.113 181.562 153.112" stroke="white" stroke-width="0.75" stroke-miterlimit="10"/>
<path d="M183.655 152.345C182.854 152.368 182.358 153.113 181.562 153.112" stroke="white" stroke-width="0.75" stroke-miterlimit="10"/>
<path d="M183.655 152.345C184.457 152.368 184.951 153.113 185.748 153.112" stroke="white" stroke-width="0.75" stroke-miterlimit="10"/>
<path d="M187.839 152.345C187.039 152.368 186.544 153.113 185.748 153.112" stroke="white" stroke-width="0.75" stroke-miterlimit="10"/>
<path d="M217.612 152.13C218.414 152.154 218.909 152.898 219.707 152.897" stroke="white" stroke-width="0.75" stroke-miterlimit="10"/>
<path d="M221.798 152.13C220.997 152.154 220.503 152.898 219.705 152.897" stroke="white" stroke-width="0.75" stroke-miterlimit="10"/>
<path d="M221.798 152.13C222.6 152.154 223.093 152.898 223.89 152.897" stroke="white" stroke-width="0.75" stroke-miterlimit="10"/>
<path d="M225.984 152.13C225.181 152.154 224.689 152.898 223.89 152.897" stroke="white" stroke-width="0.75" stroke-miterlimit="10"/>
<path d="M225.984 152.13C226.785 152.154 227.279 152.898 228.076 152.897" stroke="white" stroke-width="0.75" stroke-miterlimit="10"/>
<path d="M230.17 152.13C229.366 152.154 228.872 152.898 228.076 152.897" stroke="white" stroke-width="0.75" stroke-miterlimit="10"/>
<path d="M230.17 152.13C230.97 152.154 231.465 152.898 232.261 152.897" stroke="white" stroke-width="0.75" stroke-miterlimit="10"/>
<path d="M234.355 152.13C233.552 152.154 233.058 152.898 232.261 152.897" stroke="white" stroke-width="0.75" stroke-miterlimit="10"/>
<path d="M234.353 152.13C235.156 152.154 235.651 152.898 236.447 152.897" stroke="white" stroke-width="0.75" stroke-miterlimit="10"/>
<path d="M168.649 157.406C167.848 157.428 167.354 158.172 166.558 158.17" stroke="white" stroke-width="0.75" stroke-miterlimit="10"/>
<path d="M168.649 157.406C169.452 157.428 169.946 158.172 170.742 158.17" stroke="white" stroke-width="0.75" stroke-miterlimit="10"/>
<path d="M172.834 157.406C172.034 157.428 171.539 158.172 170.742 158.17" stroke="white" stroke-width="0.75" stroke-miterlimit="10"/>
<path d="M172.834 157.406C173.638 157.428 174.131 158.172 174.928 158.17" stroke="white" stroke-width="0.75" stroke-miterlimit="10"/>
<path d="M177.021 157.406C176.218 157.428 175.725 158.172 174.928 158.17" stroke="white" stroke-width="0.75" stroke-miterlimit="10"/>
<path d="M177.021 157.406C177.822 157.428 178.317 158.172 179.114 158.17" stroke="white" stroke-width="0.75" stroke-miterlimit="10"/>
<path d="M181.207 157.406C180.404 157.428 179.91 158.172 179.114 158.17" stroke="white" stroke-width="0.75" stroke-miterlimit="10"/>
<path d="M181.207 157.406C182.008 157.428 182.502 158.172 183.298 158.17" stroke="white" stroke-width="0.75" stroke-miterlimit="10"/>
<path d="M185.393 157.406C184.591 157.428 184.097 158.172 183.298 158.17" stroke="white" stroke-width="0.75" stroke-miterlimit="10"/>
<path d="M185.393 157.406C186.194 157.428 186.688 158.172 187.485 158.17" stroke="white" stroke-width="0.75" stroke-miterlimit="10"/>
<path d="M190.337 157.294C188.792 157.343 188.282 158.172 187.485 158.17" stroke="white" stroke-width="0.75" stroke-miterlimit="10"/>
<path d="M220.374 157.077C219.573 157.101 219.077 157.843 218.28 157.842" stroke="white" stroke-width="0.75" stroke-miterlimit="10"/>
<path d="M220.374 157.077C221.174 157.101 221.669 157.843 222.467 157.842" stroke="white" stroke-width="0.75" stroke-miterlimit="10"/>
<path d="M224.558 157.077C223.757 157.101 223.263 157.843 222.466 157.842" stroke="white" stroke-width="0.75" stroke-miterlimit="10"/>
<path d="M224.558 157.077C225.36 157.101 225.854 157.843 226.65 157.842" stroke="white" stroke-width="0.75" stroke-miterlimit="10"/>
<path d="M228.744 157.077C227.943 157.101 227.449 157.843 226.65 157.842" stroke="white" stroke-width="0.75" stroke-miterlimit="10"/>
<path d="M228.744 157.077C229.546 157.101 230.039 157.843 230.836 157.842" stroke="white" stroke-width="0.75" stroke-miterlimit="10"/>
<path d="M232.93 157.077C232.126 157.101 231.633 157.843 230.836 157.842" stroke="white" stroke-width="0.75" stroke-miterlimit="10"/>
<path d="M232.93 157.077C233.73 157.101 234.225 157.843 235.022 157.842" stroke="white" stroke-width="0.75" stroke-miterlimit="10"/>
<path d="M171.829 162.016C171.028 162.038 170.533 162.782 169.736 162.781" stroke="white" stroke-width="0.75" stroke-miterlimit="10"/>
<path d="M171.829 162.016C172.632 162.038 173.126 162.782 173.922 162.781" stroke="white" stroke-width="0.75" stroke-miterlimit="10"/>
<path d="M176.014 162.016C175.214 162.038 174.719 162.782 173.922 162.781" stroke="white" stroke-width="0.75" stroke-miterlimit="10"/>
<path d="M176.014 162.016C176.816 162.038 177.312 162.782 178.108 162.781" stroke="white" stroke-width="0.75" stroke-miterlimit="10"/>
<path d="M180.201 162.016C179.399 162.038 178.904 162.782 178.108 162.781" stroke="white" stroke-width="0.75" stroke-miterlimit="10"/>
<path d="M180.201 162.016C181.002 162.038 181.497 162.782 182.294 162.781" stroke="white" stroke-width="0.75" stroke-miterlimit="10"/>
<path d="M184.387 162.016C183.584 162.038 183.09 162.782 182.294 162.781" stroke="white" stroke-width="0.75" stroke-miterlimit="10"/>
<path d="M184.387 162.016C185.188 162.038 185.682 162.782 186.479 162.781" stroke="white" stroke-width="0.75" stroke-miterlimit="10"/>
<path d="M213.25 162.357C214.05 162.379 214.545 163.124 215.341 163.123" stroke="white" stroke-width="0.75" stroke-miterlimit="10"/>
<path d="M217.434 162.357C216.632 162.379 216.138 163.124 215.341 163.123" stroke="white" stroke-width="0.75" stroke-miterlimit="10"/>
<path d="M217.433 162.357C218.235 162.379 218.73 163.124 219.526 163.123" stroke="white" stroke-width="0.75" stroke-miterlimit="10"/>
<path d="M221.62 162.357C220.818 162.379 220.322 163.124 219.526 163.123" stroke="white" stroke-width="0.75" stroke-miterlimit="10"/>
<path d="M221.619 162.357C222.421 162.379 222.915 163.124 223.712 163.123" stroke="white" stroke-width="0.75" stroke-miterlimit="10"/>
<path d="M225.803 162.357C225.002 162.379 224.508 163.124 223.712 163.123" stroke="white" stroke-width="0.75" stroke-miterlimit="10"/>
<path d="M225.803 162.357C226.606 162.379 227.101 163.124 227.898 163.123" stroke="white" stroke-width="0.75" stroke-miterlimit="10"/>
<path d="M229.989 162.357C229.188 162.379 228.694 163.124 227.898 163.123" stroke="white" stroke-width="0.75" stroke-miterlimit="10"/>
<path d="M176.853 166.961C176.051 166.984 175.557 167.728 174.761 167.726" stroke="white" stroke-width="0.75" stroke-miterlimit="10"/>
<path d="M176.853 166.961C177.655 166.984 178.149 167.728 178.945 167.726" stroke="white" stroke-width="0.75" stroke-miterlimit="10"/>
<path d="M181.039 166.961C180.238 166.984 179.744 167.728 178.945 167.726" stroke="white" stroke-width="0.75" stroke-miterlimit="10"/>
<path d="M181.039 166.961C181.841 166.984 182.334 167.728 183.131 167.726" stroke="white" stroke-width="0.75" stroke-miterlimit="10"/>
<path d="M185.225 166.961C184.424 166.984 183.929 167.728 183.131 167.726" stroke="white" stroke-width="0.75" stroke-miterlimit="10"/>
<path d="M185.225 166.961C186.025 166.984 186.52 167.728 187.318 167.726" stroke="white" stroke-width="0.75" stroke-miterlimit="10"/>
<path d="M188.729 167.14C188.483 167.127 188.115 167.728 187.318 167.726" stroke="white" stroke-width="0.75" stroke-miterlimit="10"/>
<path d="M204.189 167.051C203.389 167.075 202.894 167.819 202.097 167.816" stroke="white" stroke-width="0.75" stroke-miterlimit="10"/>
<path d="M204.189 167.051C204.99 167.075 205.486 167.819 206.283 167.816" stroke="white" stroke-width="0.75" stroke-miterlimit="10"/>
<path d="M208.375 167.051C207.574 167.075 207.08 167.819 206.282 167.816" stroke="white" stroke-width="0.75" stroke-miterlimit="10"/>
<path d="M208.375 167.051C209.176 167.075 209.67 167.819 210.469 167.816" stroke="white" stroke-width="0.75" stroke-miterlimit="10"/>
<path d="M212.561 167.051C211.76 167.075 211.265 167.819 210.468 167.816" stroke="white" stroke-width="0.75" stroke-miterlimit="10"/>
<path d="M212.561 167.051C213.362 167.075 213.856 167.819 214.653 167.816" stroke="white" stroke-width="0.75" stroke-miterlimit="10"/>
<path d="M216.746 167.051C215.945 167.075 215.45 167.819 214.653 167.816" stroke="white" stroke-width="0.75" stroke-miterlimit="10"/>
<path d="M216.746 167.051C217.548 167.075 218.042 167.819 218.838 167.816" stroke="white" stroke-width="0.75" stroke-miterlimit="10"/>
<path d="M220.931 167.051C220.129 167.075 219.635 167.819 218.838 167.816" stroke="white" stroke-width="0.75" stroke-miterlimit="10"/>
<path d="M220.931 167.051C221.733 167.075 222.227 167.819 223.024 167.816" stroke="white" stroke-width="0.75" stroke-miterlimit="10"/>
<path d="M225.117 167.051C224.314 167.075 223.821 167.819 223.024 167.816" stroke="white" stroke-width="0.75" stroke-miterlimit="10"/>
<path d="M225.116 167.051C225.918 167.075 226.412 167.819 227.209 167.816" stroke="white" stroke-width="0.75" stroke-miterlimit="10"/>
<path d="M183.069 172.208C182.268 172.23 181.772 172.974 180.977 172.973" stroke="white" stroke-width="0.75" stroke-miterlimit="10"/>
<path d="M183.069 172.208C183.87 172.23 184.364 172.974 185.162 172.973" stroke="white" stroke-width="0.75" stroke-miterlimit="10"/>
<path d="M187.253 172.208C186.453 172.23 185.958 172.974 185.162 172.973" stroke="white" stroke-width="0.75" stroke-miterlimit="10"/>
<path d="M187.253 172.208C188.057 172.23 188.551 172.974 189.348 172.973" stroke="white" stroke-width="0.75" stroke-miterlimit="10"/>
<path d="M191.439 172.208C190.638 172.23 190.144 172.974 189.348 172.973" stroke="white" stroke-width="0.75" stroke-miterlimit="10"/>
<path d="M191.439 172.208C192.242 172.23 192.737 172.974 193.533 172.973" stroke="white" stroke-width="0.75" stroke-miterlimit="10"/>
<path d="M195.626 172.208C194.824 172.23 194.33 172.974 193.533 172.973" stroke="white" stroke-width="0.75" stroke-miterlimit="10"/>
<path d="M195.626 172.208C196.428 172.23 196.921 172.974 197.719 172.973" stroke="white" stroke-width="0.75" stroke-miterlimit="10"/>
<path d="M199.812 172.208C199.011 172.23 198.517 172.974 197.719 172.973" stroke="white" stroke-width="0.75" stroke-miterlimit="10"/>
<path d="M199.812 172.208C200.613 172.23 201.107 172.974 201.904 172.973" stroke="white" stroke-width="0.75" stroke-miterlimit="10"/>
<path d="M203.998 172.208C203.196 172.23 202.703 172.974 201.904 172.973" stroke="white" stroke-width="0.75" stroke-miterlimit="10"/>
<path d="M203.998 172.208C204.799 172.23 205.293 172.974 206.089 172.973" stroke="white" stroke-width="0.75" stroke-miterlimit="10"/>
<path d="M208.184 172.208C207.38 172.23 206.886 172.974 206.089 172.973" stroke="white" stroke-width="0.75" stroke-miterlimit="10"/>
<path d="M208.184 172.208C208.984 172.23 209.479 172.974 210.275 172.973" stroke="white" stroke-width="0.75" stroke-miterlimit="10"/>
<path d="M212.368 172.208C211.566 172.23 211.072 172.974 210.275 172.973" stroke="white" stroke-width="0.75" stroke-miterlimit="10"/>
<path d="M212.367 172.208C213.169 172.23 213.665 172.974 214.46 172.973" stroke="white" stroke-width="0.75" stroke-miterlimit="10"/>
<path d="M216.554 172.208C215.752 172.23 215.256 172.974 214.46 172.973" stroke="white" stroke-width="0.75" stroke-miterlimit="10"/>
<path d="M216.553 172.208C217.355 172.23 217.849 172.974 218.646 172.973" stroke="white" stroke-width="0.75" stroke-miterlimit="10"/>
<path fill-rule="evenodd" clip-rule="evenodd" d="M214.651 151.324C213.762 151.88 214.512 147.929 214.974 146.237C215.549 144.129 217.304 141.333 217.92 141.044C218.386 140.826 218.597 144.923 218.04 146.678C217.428 148.603 215.877 150.555 214.651 151.324Z" fill="#004226" stroke="white" stroke-width="0.75" stroke-miterlimit="10"/>
<path d="M217.969 141.01L218.764 139.223" stroke="white" stroke-width="0.75" stroke-miterlimit="10"/>
<path fill-rule="evenodd" clip-rule="evenodd" d="M213.433 151.043C212.384 151.085 214.999 148.028 216.24 146.789C217.786 145.246 220.696 143.689 221.374 143.744C221.888 143.786 220.037 147.449 218.682 148.693C217.194 150.06 214.878 150.983 213.433 151.043Z" fill="#004226" stroke="white" stroke-width="0.75" stroke-miterlimit="10"/>
<path d="M221.433 143.739L223.01 142.583" stroke="white" stroke-width="0.75" stroke-miterlimit="10"/>
<path fill-rule="evenodd" clip-rule="evenodd" d="M213.129 152.14C211.848 150.708 213.696 149.518 215.217 148.765C217.173 147.796 220.252 146.738 220.901 146.942C221.393 147.099 218.77 150.255 217.172 151.166C215.418 152.167 214.093 153.219 213.129 152.14Z" fill="#004226" stroke="white" stroke-width="0.75" stroke-miterlimit="10"/>
<path fill-rule="evenodd" clip-rule="evenodd" d="M215.381 153.955C209.746 156.114 211.825 152.719 213.11 152.033C215.037 151.005 218.146 150.006 218.795 150.213C219.287 150.366 218.494 151.275 217.098 152.475C215.344 153.983 216.868 153.386 215.381 153.955V153.955Z" fill="#004226" stroke="white" stroke-width="0.75" stroke-miterlimit="10"/>
<path fill-rule="evenodd" clip-rule="evenodd" d="M252.331 196.721C252.698 197.527 252.851 198.333 253.219 199.138C251.263 200.548 250.918 202.116 251.372 203.617C251.857 203.9 252.296 203.9 252.687 203.617C254.399 201.23 256.174 199.345 257.983 197.716C259.274 197.531 260.283 197.628 261.077 197.942C261.594 197.631 262.086 197.292 262.522 196.898C263.47 196.132 264.747 193.067 265.072 190.993C263.508 191.588 261.957 192.272 260.443 193.209C259.91 193.542 259.883 195.042 259.772 195.96C259.21 194.785 258.613 192.096 259.235 191.396C261.387 189.835 266.731 187.732 269.836 185.357C270.082 186.118 270.33 186.878 270.575 187.639C265.818 191.623 265.871 197.227 264.535 198.241C264.058 198.761 263.351 199.179 262.707 199.521C262.793 200.546 262.773 201.653 262.283 202.301C260.212 204.618 257.92 207.272 255.281 209.588C256.3 211.016 256.655 212.354 256.348 214.066C255.157 214.857 253.877 215.313 252.118 215.63C252.058 215.501 251.998 215.369 251.941 215.24C254.34 214.048 256.112 212.802 254.607 210.37C253.822 210.158 253.013 211.32 252.331 211.472C252.285 211.577 250.057 210.515 250.732 207.384C251.367 206.674 252.352 207.78 253.754 208.344C256.581 205.802 259.016 203.148 261.182 200.417C261.228 199.469 260.517 199.138 259.048 199.423C256.584 201.377 253.302 205.713 252.545 205.821C251.832 205.954 250.198 203.831 250.164 201.946C249.839 200.529 250.83 198.024 252.331 196.721" fill="white"/>
<path fill-rule="evenodd" clip-rule="evenodd" d="M246.335 209.641C249.138 208.517 249.78 211.582 250.636 214.234C250.775 214.971 250.33 215.528 249.677 215.904C248.757 215.751 247.964 215.806 247.046 215.653C246.719 217.4 246.01 218.417 245.46 218.157C244.604 217.335 244.159 217.267 243.414 217.113C243.707 220.147 236.013 224.071 233.979 224.378C232.034 224.632 230.444 222.717 229.639 220.412C229.834 220.355 229.902 220.384 230.098 220.329C230.583 221.458 231.208 222.446 232.81 222.457C237.111 221.372 240.353 219.507 242.537 216.863C242.963 215.819 242.81 215.026 242.454 214.318C242.634 214.247 242.816 214.177 242.996 214.109C243.441 215.069 243.386 215.792 243.623 216.529C244.069 216.474 244.583 216.488 244.917 216.321C245.667 216.227 246.06 215.705 246.252 214.943C246.428 213.102 245.968 209.95 246.335 209.641" fill="white"/>
<path fill-rule="evenodd" clip-rule="evenodd" d="M236.276 214.903L238.655 216.071L239.614 214.066L237.361 212.981" fill="white"/>
<path fill-rule="evenodd" clip-rule="evenodd" d="M232.77 216.447L235.149 217.615L236.108 215.612L233.855 214.525" fill="white"/>
<path fill-rule="evenodd" clip-rule="evenodd" d="M212.051 223.548L214.431 224.717L215.391 222.714L213.137 221.629" fill="white"/>
<path fill-rule="evenodd" clip-rule="evenodd" d="M208.02 219.853L210.398 221.021L211.359 219.018L209.104 217.931" fill="white"/>
<path fill-rule="evenodd" clip-rule="evenodd" d="M204.188 220.792L206.567 221.961L207.527 219.958L205.273 218.872" fill="white"/>
<path fill-rule="evenodd" clip-rule="evenodd" d="M230.19 226.629C230.315 226.99 230.091 227.943 229.205 228.517C228.13 229.215 227.981 229.173 226.846 230.03C226.796 229.682 226.808 229.101 227.788 228.357C228.951 227.643 229.244 227.531 230.19 226.629Z" fill="white"/>
<path fill-rule="evenodd" clip-rule="evenodd" d="M227.93 220.197C228.851 221.118 229.38 222.434 229.514 224.142C229.293 225.722 228.802 226.287 228.187 226.392C227.266 226.151 226.75 225.844 226.417 225.507C226.577 226.22 226.118 226.833 225.099 227.35C224.429 227.213 223.892 226.946 223.616 226.317C222.682 227.763 221.428 228.806 219.707 229.267C218.588 229.169 217.815 228.727 217.384 227.94C216.611 229.237 216.257 230.851 213.807 230.89C212.734 230.797 211.956 230.355 211.373 229.673C210.288 231.305 209.393 233.069 206.838 233.655C205.757 233.756 204.087 232.23 203.999 229.857C203.962 229.193 204.134 228.703 204.293 228.235C204.478 228.357 204.663 228.48 204.847 228.603C204.565 229.267 204.651 230.005 204.957 230.669C205.463 231.529 206.199 231.934 207.097 231.812C208.505 231.234 209.783 230.485 210.601 229.12C210.397 227.91 209.213 226.293 207.134 224.584C207.478 224.02 207.416 223.195 207.76 222.631C209.454 224.32 210.195 226.8 212.074 228.272C212.571 228.456 213.162 228.578 213.955 228.566C216.389 228.367 216.903 226.995 217.532 225.69C217.666 225.766 217.803 225.839 217.937 225.912C217.815 226.779 218.245 227.368 219.891 227.35C221.824 227.118 223.121 226.144 223.284 223.847C223.444 223.983 223.603 224.118 223.762 224.253C223.567 224.843 223.861 225.236 224.647 225.432C225.698 225.402 226.007 224.357 225.974 222.852C226.111 222.913 226.246 222.974 226.381 223.036C226.265 223.865 226.486 224.541 227.45 224.879C228.262 224.671 228.63 224.217 228.557 223.516C228.163 223.073 228.102 222.52 227.523 222.226C227.808 221.562 227.844 220.861 227.93 220.197" fill="white"/>
<path fill-rule="evenodd" clip-rule="evenodd" d="M186.469 229.445C187.09 227.953 188.331 226.365 189.154 226.231C190.413 226.117 191.399 227.842 192.526 227.821C192.515 227.916 192.505 228.135 192.495 228.228C189.352 230.32 188.301 231.695 185.874 231.725C183.845 231.82 184.21 228.927 183.783 228.821C182.305 229.925 181.003 229.862 180.193 229.633C179.18 230.791 177.926 232.15 176.414 232.975C174.957 232.313 174.556 231.714 173.666 231.507C173.749 231.382 173.833 231.382 173.916 231.256C176.376 231.804 178.297 231.276 179.255 229.914C178.97 228.2 178.033 230.125 177.474 228.165C177.943 226.4 178.439 224.838 179.974 224.669C181.342 224.823 181.281 227.06 181.565 228.54C182.362 228.81 184.126 228.418 184.126 227.541C185.238 223.471 186.273 220.307 187.966 219.984C190.657 219.901 192.937 219.892 195.273 219.704C195.126 220.298 194.37 220.484 193.057 221.078C190.886 221.593 189.177 220.874 186.936 221.295C185.74 223.618 185.137 225.939 184.938 228.259C185.214 229.124 185.775 229.415 186.469 229.445H186.469ZM188.716 227.385C189.862 227.311 190.701 228.385 191.371 228.385C190.638 229.005 189.517 230.006 188.217 230.133C187.459 230.102 187.275 230.017 186.968 229.478C187.338 228.18 188.595 227.088 188.716 227.385Z" fill="white"/>
<path fill-rule="evenodd" clip-rule="evenodd" d="M176.489 223.212C176.936 223.227 176.477 225.058 177.124 225.839C176.795 226.815 175.941 226.494 175.094 227.378C174.805 227.199 174.8 226.237 174.407 225.746C170.042 227.941 170.005 227.445 169.385 227.312C168.889 226.635 169.05 225.84 169.043 225.065C166.145 224.633 164.303 225.419 156.873 220.036C156.149 219.523 155.818 218.898 156.106 217.112C156.572 215.825 157.322 215.143 158.284 214.646C158.314 214.783 158.345 214.922 158.375 215.06C157.937 215.513 157.549 216.013 157.501 216.857C157.089 217.425 157.62 217.992 158.284 218.561C161.475 220.995 165.112 223.153 169.18 224.318C170.333 224.105 170.85 223.769 171.458 223.167C171.443 223.427 171.428 223.688 171.412 223.95C171.111 224.186 170.712 224.484 170.215 224.622C169.984 225.318 170.045 225.844 170.399 226.344C171.089 226.584 172.415 226.125 174.176 225.194C174.773 224.101 175.502 223.524 176.489 223.212" fill="white"/>
<path fill-rule="evenodd" clip-rule="evenodd" d="M166.878 217.664C167.527 217.645 167.644 218.856 168.146 219.524C168.124 219.957 167.078 219.837 166.357 220.114C165.867 220.349 165.581 218.942 165.048 218.238C164.789 217.907 166.187 217.937 166.878 217.664" fill="white"/>
<path fill-rule="evenodd" clip-rule="evenodd" d="M163.649 216.015C164.299 215.996 164.414 217.205 164.917 217.873C164.895 218.308 163.849 218.188 163.129 218.463C162.639 218.7 162.351 217.291 161.819 216.588C161.558 216.256 162.958 216.286 163.649 216.015" fill="white"/>
<path fill-rule="evenodd" clip-rule="evenodd" d="M141.726 195.658C142.368 195.763 142.251 196.972 142.617 197.724C142.513 198.145 141.51 197.827 140.749 197.963C140.224 198.102 140.211 196.665 139.822 195.873C139.629 195.497 140.996 195.794 141.726 195.658Z" fill="white"/>
<path fill-rule="evenodd" clip-rule="evenodd" d="M152.999 215.728C152.073 215.623 151.021 215.424 149.838 215.131C148.806 214.865 148.372 215.086 148.042 215.316C148.688 215.452 149.197 215.529 151.046 216.052C151.672 216.21 152.523 215.934 152.999 215.728" fill="white"/>
<path fill-rule="evenodd" clip-rule="evenodd" d="M130.876 186.07C133.673 185.355 136.536 185.617 137.405 187.345C137.7 188.336 137.427 188.454 136.903 188.81C137.749 189.27 138.727 189.945 138.557 191.007C138.539 191.735 137.19 192.58 136.213 192.243C132.766 191.015 130.234 189.507 129.305 185.462C129.501 185.373 129.384 185.426 129.579 185.337C129.84 185.655 130.225 185.918 130.876 186.07V186.07ZM136.102 191.625C136.782 191.498 137.197 191.181 137.286 190.464C137.344 189.781 136.859 189.368 136.127 189.081C134.77 188.734 133.539 188.474 132.249 188.39C132.31 189.219 135.193 191.905 136.102 191.625ZM131.326 186.51C133.03 186.21 134.875 186.144 136.316 187.03C136.555 187.968 136 188.122 135.12 188.136C133.156 187.866 131.775 187.439 131.326 186.51" fill="white"/>
<path fill-rule="evenodd" clip-rule="evenodd" d="M161.329 213.28C160.515 213.266 159.719 213.351 158.998 213.799C158.551 213.304 157.687 212.992 156.406 212.866C145.834 212.834 140.691 208.043 138.165 203.932C137.261 202.381 137.142 200.609 136.404 199.962C134.473 199.643 132.444 198.825 132.31 197.682C132.168 196.522 133.387 195.782 134.266 195.178C133.179 195.091 131.26 195.224 130.444 194.728C130.074 193.589 129.591 192.449 128.94 191.309C129.045 191.222 129.148 191.137 129.253 191.05C130.914 194.09 134.01 195.045 138.545 194.468C138.545 194.59 138.58 194.745 138.58 195.041C137.476 195.143 136.96 195.213 135.854 195.142C135.247 195.868 134.749 196.739 135.161 197.372C135.334 199.923 139.021 199.135 139.358 199.651C139.641 200.382 139.344 200.636 139.824 202.155C140.933 207.46 149.609 211.769 158.428 212.504C159.978 212.705 160.712 212.987 161.329 213.28" fill="white"/>
</svg>
