<svg width="400" height="300" viewBox="0 0 400 300" fill="none" xmlns="http://www.w3.org/2000/svg">
<path d="M400 0H0V300H400V0Z" fill="white"/>
<path d="M400 28.125H0V75H400V28.125Z" fill="black"/>
<path d="M400 225H0V271.875H400V225Z" fill="black"/>
<path d="M138.184 108.075C138.184 124.536 144.723 140.323 156.363 151.962C168.002 163.602 183.789 170.141 200.25 170.141C216.711 170.141 232.498 163.602 244.137 151.962C255.777 140.323 262.316 124.536 262.316 108.075H256.407C256.407 122.969 250.49 137.252 239.959 147.784C229.427 158.315 215.144 164.232 200.25 164.232C185.356 164.232 171.073 158.315 160.541 147.784C150.01 137.252 144.093 122.969 144.093 108.075H138.184Z" fill="black"/>
<path d="M156.035 108.344C156.035 120.07 160.693 131.317 168.985 139.608C177.277 147.9 188.523 152.559 200.25 152.559C211.977 152.559 223.223 147.9 231.515 139.608C239.807 131.317 244.465 120.07 244.465 108.344H238.514C238.514 118.492 234.483 128.225 227.307 135.401C220.131 142.577 210.398 146.608 200.25 146.608C190.102 146.608 180.369 142.577 173.193 135.401C166.017 128.225 161.986 118.492 161.986 108.344H156.035Z" fill="black"/>
<path d="M174.098 108.075C174.098 111.509 174.775 114.91 176.089 118.083C177.403 121.256 179.329 124.139 181.758 126.567C184.186 128.996 187.069 130.922 190.242 132.236C193.415 133.55 196.816 134.227 200.25 134.227C203.684 134.227 207.085 133.55 210.258 132.236C213.431 130.922 216.314 128.996 218.742 126.567C221.171 124.139 223.097 121.256 224.411 118.083C225.725 114.91 226.402 111.509 226.402 108.075H220.493C220.493 110.733 219.969 113.366 218.952 115.821C217.934 118.277 216.443 120.509 214.564 122.389C212.684 124.268 210.452 125.759 207.996 126.777C205.541 127.794 202.908 128.318 200.25 128.318C197.592 128.318 194.959 127.794 192.504 126.777C190.048 125.759 187.816 124.268 185.936 122.389C184.057 120.509 182.566 118.277 181.548 115.821C180.531 113.366 180.008 110.733 180.008 108.075H174.098Z" fill="black"/>
<path d="M168.101 198.674V202.719H232.399V198.674L203.204 192.166V103.524H197.296V192.166L168.101 198.674Z" fill="black"/>
<path d="M133.598 100.636H148.681L144.094 106.834H138.185L133.598 100.636Z" fill="black"/>
<path d="M151.5 100.625H166.583L161.996 106.823H156.087L151.5 100.625Z" fill="black"/>
<path d="M169.625 100.625H184.707L180.121 106.823H174.212L169.625 100.625Z" fill="black"/>
<path d="M192.75 96.25H207.832L203.246 102.448H197.337L192.75 96.25Z" fill="black"/>
<path d="M215.875 100.625H230.958L226.371 106.823H220.462L215.875 100.625Z" fill="black"/>
<path d="M234 100.625H249.083L244.496 106.823H238.587L234 100.625Z" fill="black"/>
<path d="M251.5 100.625H266.583L261.996 106.823H256.087L251.5 100.625Z" fill="black"/>
<path d="M151.5 100.625H166.583L161.996 106.823H156.087L151.5 100.625Z" fill="black"/>
</svg>
