<svg width="400" height="300" viewBox="0 0 400 300" fill="none" xmlns="http://www.w3.org/2000/svg">
<path d="M0 0H400V300H0V0Z" fill="#0000CC"/>
<path d="M187.806 33.6277C218.89 30.2944 251.167 40.3777 275.056 60.5305C283.765 69.0166 292.806 77.4193 298.792 88.1555C309.265 104.433 314.667 123.586 316.376 142.739C317.973 175.753 305.778 210.003 281.334 232.697C262.931 252.142 236.834 263.044 210.515 266.03C179.765 268.794 148.029 258.878 124.431 238.919C115.709 230.447 106.667 222.03 100.681 211.294C93.4313 200.197 88.8341 187.586 85.8341 174.739C77.6674 139.905 87.5285 101.669 110.542 74.4055C118.806 65.9471 126.931 57.1416 137.292 51.1832C152.404 41.3777 170.001 35.7527 187.806 33.6277Z" fill="#F4F4F4"/>
<path d="M192.501 46.6554C195.487 44.1277 198.126 41.2666 200.598 38.2249C206.917 47.9749 212.862 58.3499 214.848 69.9332C215.917 76.7249 216.64 83.5443 217.681 90.336C218.57 96.6415 216.64 102.767 216.348 109.017C216.348 115.794 216.82 122.628 215.584 129.336C214.445 134.961 215.57 140.753 214.459 146.378C213.07 153.628 212.14 160.961 210.626 168.197C206.598 173.669 206.154 180.433 206.64 187.003C206.64 187.669 206.654 189.017 206.654 189.683C206.945 195.683 205.417 202.239 208.556 207.725C209.806 210.142 210.931 212.642 211.723 215.267C208.654 215.072 205.598 215.017 202.542 214.975C202.542 222.142 202.584 229.322 202.501 236.489C208.445 238.864 212.681 245.655 210.501 251.989C207.917 257.642 202.445 261.169 198.348 265.655C193.529 260.044 184.779 255.572 185.751 247.044C185.959 242.558 189.681 239.475 192.737 236.669C192.792 229.503 192.709 222.322 192.806 215.155C192.195 215.128 190.973 215.086 190.348 215.058C188.279 214.961 186.209 214.85 184.154 214.725C189.181 208.794 189.14 200.961 188.487 193.614C188.473 193.211 188.431 192.405 188.417 191.989C187.917 184.6 190.431 176.725 187.39 169.683C182.654 156.989 182.07 143.336 181.223 129.975C179.89 122.628 180.251 115.142 180.279 107.711C180.334 103.767 180.279 99.8221 180.292 95.8777C180.417 88.9193 181.612 82.0582 182.598 75.1832C183.737 65.1277 187.015 55.1971 192.501 46.6554Z" fill="black"/>
<path d="M200.279 39.9055C206.987 50.3499 212.917 61.7527 214.015 74.3221C215.001 84.1832 218.084 94.2388 215.362 104.086C214.112 112.878 216.265 121.933 213.959 130.614C213.098 135.794 214.223 141.142 213.112 146.308C211.529 153.669 211.029 161.239 208.987 168.503C207.723 170.586 205.029 172.058 205.306 174.794C205.306 185.322 205.181 195.864 205.362 206.392C207.154 208.892 209.251 211.155 211.112 213.6C207.779 213.628 204.459 213.6 201.126 213.614C201.126 221.378 201.098 229.142 201.154 236.905C205.542 239.072 210.042 242.919 209.556 248.336C209.931 255.669 202.07 258.933 198.348 264.155C195.056 259.85 189.89 257.03 187.598 252.017C185.556 246.197 188.987 240.128 194.279 237.517C194.098 229.558 194.209 221.586 194.181 213.628C191.292 213.614 188.417 213.614 185.529 213.614C187.112 211.35 190.306 209.739 189.987 206.614C190.154 197.836 189.89 189.058 190.029 180.28C189.931 177.836 190.904 175.572 191.598 173.294C186.001 165.822 184.806 156.211 184.056 147.155C182.376 140.669 183.737 133.836 181.834 127.378C181.515 115.392 181.695 103.392 181.737 91.4055C183.681 78.1416 184.306 64.1693 190.834 52.1138C192.681 47.0305 198.14 44.8499 200.279 39.9055Z" fill="#FFFF00"/>
<path d="M139.07 62.711C142.917 61.3777 146.876 60.0443 150.945 59.6832C158.848 60.3499 166.765 62.6555 173.14 67.5166C177.098 68.9332 179.959 72.0443 182.598 75.1832C181.612 82.0582 180.417 88.9193 180.292 95.8777C176.056 92.6138 173.084 87.6832 168.056 85.5443C163.931 83.5721 160.862 79.3777 156.042 79.0027C152.542 77.836 149.001 78.9749 145.487 79.336C140.862 79.7943 138.862 85.4888 134.084 85.4193C133.529 90.1138 128.973 93.0443 128.237 97.7666C125.89 102.6 129.265 107.253 130.82 111.711C135.237 121.35 144.223 127.614 151.209 135.267C148.195 139.975 144.029 143.739 140.001 147.544C132.334 139.753 123.987 132.53 117.292 123.85C106.251 111.878 106.987 91.1416 118.792 79.8916C125.195 73.7943 130.973 66.6555 139.07 62.711Z" fill="#00CC00"/>
<path d="M227.195 62.5305C233.64 60.2388 240.57 58.2249 247.404 60.1277C256.431 63.1832 264.584 68.6416 270.959 75.7249C278.084 82.086 283.154 91.0027 283.792 100.628C284.348 108.919 280.959 116.739 276.306 123.419C273.792 128.558 269.306 132.197 265.376 136.197C261.876 139.655 258.598 143.405 254.473 146.155C250.042 149.155 247.445 153.975 244.209 158.086C241.348 162.128 237.223 165.058 234.445 169.155C228.667 177.878 217.82 181.836 213.181 191.503C210.945 190.072 208.765 188.586 206.64 187.003C206.154 180.433 206.598 173.669 210.626 168.197C214.445 165.392 218.64 162.864 221.39 158.878C227.251 150.447 236.348 145.086 242.306 136.739C247.181 129.572 254.959 124.808 258.904 116.989C263.167 111.919 265.515 105.322 264.904 98.6832C263.542 92.6416 260.362 86.7527 255.195 83.1694C248.001 77.3221 236.598 75.9749 228.959 81.711C225.029 84.3499 221.306 87.2805 217.681 90.336C216.64 83.5443 215.917 76.7249 214.848 69.9332C219.015 67.5582 222.39 63.6832 227.195 62.5305Z" fill="#00CC00"/>
<path d="M166.973 119.767C172.015 116.447 175.695 111.572 180.279 107.711C180.251 115.142 179.89 122.628 181.223 129.975C178.515 132.28 175.459 134.253 173.348 137.183C168.001 144.308 160.39 149.336 155.292 156.697C148.473 165.975 137.584 172.003 132.82 182.794C129.737 188.808 125.626 195.905 128.584 202.767C132.806 214.919 147.779 223.475 160.195 218.683C166.667 214.655 172.737 209.878 177.904 204.253C181.39 200.669 183.709 195.767 188.487 193.614C189.14 200.961 189.181 208.794 184.154 214.725C186.209 214.85 188.279 214.961 190.348 215.058C183.334 222.975 175.612 230.447 166.417 235.78C161.362 237.336 156.154 238.642 150.862 239.114C146.834 238.53 142.876 237.336 138.973 236.183C130.39 230.364 122.07 224.003 115.556 215.836C112.39 211.308 110.779 205.989 109.029 200.822C107.917 193.197 109.973 185.308 113.626 178.614C117.876 173.642 120.862 167.655 125.737 163.225C131.876 157.308 137.501 150.808 144.501 145.878C150.098 141.947 152.029 135.058 157.042 130.628C160.584 127.211 162.737 122.489 166.973 119.767Z" fill="#00CC00"/>
<path d="M216.348 109.017C223.042 112.475 226.765 119.392 233.029 123.392C236.89 126.114 240.056 129.642 243.334 133.017C239.376 136.947 235.806 141.211 232.598 145.78C226.973 140.253 221.695 134.336 215.584 129.336C216.82 122.628 216.348 115.794 216.348 109.017Z" fill="#00CC00"/>
<path d="M245.598 158.947C249.279 154.725 252.32 149.947 256.654 146.308C266.084 156.072 276.654 164.878 284.737 175.85C289.223 182.822 290.987 191.183 290.57 199.419C288.084 205.586 285.681 212.155 280.681 216.78C276.084 221.211 271.709 225.892 267.029 230.225C259.612 235.169 250.292 238.447 241.404 235.933C232.959 234.614 226.487 228.794 219.57 224.35C216.779 221.53 213.07 219.128 211.723 215.267C210.931 212.642 209.806 210.142 208.556 207.725C205.417 202.239 206.945 195.683 206.654 189.683C214.265 193.919 219.39 201.28 225.723 207.072C228.292 210.364 232.681 211.017 235.515 213.975C239.945 218.183 246.57 218.892 252.292 217.461C257.695 217.364 260.792 212.197 265.404 210.336C267.084 205.197 272.487 201.405 272.056 195.572C271.404 186.642 265.681 179.308 259.848 172.961C255.112 168.28 250.487 163.475 245.598 158.947Z" fill="#00CC00"/>
<path d="M153.834 161.85C157.195 157.211 160.959 152.878 164.348 148.253C171.362 156.1 179.598 162.655 187.39 169.683C190.431 176.725 187.917 184.6 188.417 191.989C183.265 188.808 179.501 183.975 174.973 180.03C167.792 174.114 161.348 167.364 153.834 161.85Z" fill="#00CC00"/>
<path d="M194.737 241.392C196.681 241.378 198.626 241.378 200.57 241.392C201.667 242.517 202.779 243.628 203.904 244.739C203.904 246.669 203.904 248.614 203.904 250.558C202.765 251.655 201.654 252.767 200.556 253.892C198.626 253.892 196.681 253.892 194.751 253.892C193.64 252.753 192.529 251.642 191.404 250.558C191.39 248.614 191.39 246.669 191.404 244.725C192.529 243.628 193.64 242.517 194.737 241.392Z" fill="black"/>
<path d="M196.112 242.85C199.612 241.78 203.529 245.683 202.431 249.183C200.806 251.086 198.931 253.447 196.112 252.419C194.681 250.892 192.154 249.614 192.751 247.142C192.751 245.169 195.001 244.225 196.112 242.85Z" fill="#F4F4F4"/>
</svg>
