<svg width="400" height="300" viewBox="0 0 400 300" fill="none" xmlns="http://www.w3.org/2000/svg">
<g clip-path="url(#clip0)">
<path d="M0 0H540V300H0" fill="white"/>
<path d="M0 40H150C167.902 40 185.071 47.1116 197.73 59.7703C210.388 72.429 217.5 89.5979 217.5 107.5C217.5 125.402 210.388 142.571 197.73 155.23C185.071 167.888 167.902 175 150 175H540V0H0" fill="black"/>
<path d="M0 95H150C160.609 95 170.783 99.2143 178.284 106.716C185.786 114.217 190 124.391 190 135C190 145.609 185.786 155.783 178.284 163.284C170.783 170.786 160.609 175 150 175C157.293 175 164.288 172.103 169.445 166.945C174.603 161.788 177.5 154.793 177.5 147.5C177.5 140.207 174.603 133.212 169.445 128.055C164.288 122.897 157.293 120 150 120C135.413 120 121.424 125.795 111.109 136.109C100.795 146.424 95 160.413 95 175C95 189.587 100.795 203.576 111.109 213.891C121.424 224.205 135.413 230 150 230H540V300H0" fill="#D40000"/>
</g>
<defs>
<clipPath id="clip0">
<rect width="400" height="300" fill="white"/>
</clipPath>
</defs>
</svg>
