<svg width="50" height="50" viewBox="0 0 50 50" fill="none" xmlns="http://www.w3.org/2000/svg">
<rect width="50" height="50" fill="#8A8A8A"/>
<path d="M25.2456 21.216C25.8003 20.6827 26.2696 20.0853 26.6536 19.424C27.0376 18.7627 27.2296 18.0693 27.2296 17.344C27.2296 16.6187 27.0376 16.0427 26.6536 15.616C26.2696 15.1893 25.6936 14.976 24.9256 14.976C24.179 14.976 23.571 15.3173 23.1016 16C22.6536 16.6827 22.4296 17.44 22.4296 18.272C22.4296 19.0827 22.4936 19.7973 22.6216 20.416C22.2376 20.5227 21.8856 20.576 21.5656 20.576C20.7123 20.576 19.987 20.2987 19.3896 19.744C18.8136 19.168 18.5256 18.4533 18.5256 17.6C18.5256 15.936 19.2723 14.592 20.7656 13.568C22.259 12.5227 23.891 12 25.6616 12C27.4323 12 28.8403 12.416 29.8856 13.248C30.9523 14.0587 31.4856 15.2213 31.4856 16.736C31.4856 17.6533 31.187 18.5813 30.5896 19.52C30.0136 20.4587 29.3736 21.2587 28.6696 21.92C27.987 22.56 27.347 23.328 26.7496 24.224C26.1736 25.0987 25.8856 25.952 25.8856 26.784C25.8856 27.168 25.9496 27.584 26.0776 28.032C25.5443 28.4373 24.9256 28.64 24.2216 28.64C23.539 28.64 22.9416 28.4373 22.4296 28.032C21.939 27.6053 21.6936 27.072 21.6936 26.432C21.6936 25.7707 21.8856 25.1307 22.2696 24.512C22.6536 23.8933 23.1123 23.328 23.6456 22.816C24.179 22.2827 24.7123 21.7493 25.2456 21.216ZM22.2056 32.192C22.8456 31.8507 23.4643 31.68 24.0616 31.68C25.491 31.68 26.2056 32.3413 26.2056 33.664C26.2056 34.368 25.9603 34.9653 25.4696 35.456C25.0003 35.9467 24.4243 36.192 23.7416 36.192C23.0803 36.192 22.5683 36.0107 22.2056 35.648C21.8643 35.264 21.6936 34.7413 21.6936 34.08C21.6936 33.3973 21.8643 32.768 22.2056 32.192Z" fill="white"/>
</svg>
