<svg width="443" height="246" viewBox="0 0 443 246" fill="none" xmlns="http://www.w3.org/2000/svg">
<g clip-path="url(#clip0)">
<path d="M442.916 0H0V27.2741H442.916V0Z" fill="#409D27"/>
<path d="M442.916 27.2741H0V54.5482H442.916V27.2741Z" fill="#D90000"/>
<path d="M442.916 54.5482H0V81.8224H442.916V54.5482Z" fill="#FFE600"/>
<path d="M442.916 81.8224H0V109.096H442.916V81.8224Z" fill="#409D27"/>
<path d="M442.916 109.096H0V136.371H442.916V109.096Z" fill="#D90000"/>
<path d="M442.916 136.371H0V163.645H442.916V136.371Z" fill="#FFE600"/>
<path d="M442.916 190.919H0V218.193H442.916V190.919Z" fill="#D90000"/>
<path d="M442.916 218.193H0V245.467H442.916V218.193Z" fill="#FFE600"/>
<path d="M442.916 163.645H0V190.919H442.916V163.645Z" fill="#409D27"/>
<path fill-rule="evenodd" clip-rule="evenodd" d="M148.971 37.1648C145.613 37.1648 142.908 39.8696 142.908 43.2273C142.908 46.5851 145.613 49.2898 148.971 49.2898H150.752V163.634C151.109 196.848 208.257 191.022 221.471 210.665C234.685 191.022 291.801 196.848 292.158 163.634V49.2898H293.94C297.297 49.2898 300.002 46.5851 300.002 43.2273C300.002 39.8696 297.297 37.1648 293.94 37.1648H148.971Z" fill="#409D27" stroke="black" stroke-width="0.6"/>
<path d="M207.1 123.99L208.313 122.754C209.491 121.552 211.421 121.533 212.623 122.712L253.705 163.004C254.907 164.183 254.926 166.113 253.747 167.315L252.534 168.552C251.355 169.753 249.425 169.772 248.224 168.593L207.142 128.301C205.94 127.122 205.921 125.192 207.1 123.99Z" fill="#FFE600"/>
<path fill-rule="evenodd" clip-rule="evenodd" d="M188.524 54.4952L218.118 116.401V186.276C218.118 187.851 219.387 189.12 220.962 189.12H222.243C223.818 189.12 225.087 187.851 225.087 186.276V116.464L254.712 54.4952H188.524Z" fill="#FFE600"/>
<path d="M235.463 123.99L234.25 122.754C233.071 121.552 231.141 121.533 229.939 122.712L188.857 163.004C187.655 164.183 187.637 166.113 188.816 167.315L190.028 168.552C191.207 169.753 193.137 169.772 194.339 168.593L235.421 128.301C236.623 127.122 236.642 125.192 235.463 123.99Z" fill="#FFE600"/>
<path fill-rule="evenodd" clip-rule="evenodd" d="M287.827 71.3466C286.374 70.6123 241.316 78.6135 229.265 123.46L231.926 126.173L234.587 128.886C281.145 119.741 287.827 71.3466 287.827 71.3466Z" fill="#FFE600"/>
<path fill-rule="evenodd" clip-rule="evenodd" d="M155.084 71.3466C156.537 70.6123 201.595 78.6135 213.646 123.46L210.984 126.173L208.323 128.886C161.765 119.741 155.084 71.3466 155.084 71.3466Z" fill="#FFE600"/>
</g>
<defs>
<clipPath id="clip0">
<rect width="442.916" height="245.467" fill="white"/>
</clipPath>
</defs>
</svg>
